<?xml version="1.0" encoding="UTF-8"?>
<svg width="210px" height="210px" viewBox="0 0 210 210" version="1.1" xmlns="http://www.w3.org/2000/svg" xmlns:xlink="http://www.w3.org/1999/xlink">
    <!-- Generator: Sketch 48.2 (47327) - http://www.bohemiancoding.com/sketch -->
    <title>Group</title>
    <desc>Created with Sketch.</desc>
    <defs>
        <linearGradient x1="522.727841%" y1="-391.823141%" x2="-86.6616223%" y2="177.496686%" id="linearGradient-1">
            <stop stop-color="#FCEE21" offset="0%"></stop>
            <stop stop-color="#FAD022" offset="20%"></stop>
            <stop stop-color="#F15A24" offset="100%"></stop>
        </linearGradient>
        <linearGradient x1="400.837119%" y1="-277.751306%" x2="-213.599459%" y2="296.329511%" id="linearGradient-2">
            <stop stop-color="#FCEE21" offset="0%"></stop>
            <stop stop-color="#F15A24" offset="100%"></stop>
        </linearGradient>
        <linearGradient x1="31918%" y1="5491.03077%" x2="16518%" y2="18850.355%" id="linearGradient-3">
            <stop stop-color="#FCEE21" offset="0%"></stop>
            <stop stop-color="#F15A24" offset="100%"></stop>
        </linearGradient>
        <linearGradient x1="34980.7934%" y1="9329%" x2="19641.9221%" y2="23663%" id="linearGradient-4">
            <stop stop-color="#FCEE21" offset="0%"></stop>
            <stop stop-color="#F15A24" offset="100%"></stop>
        </linearGradient>
        <linearGradient x1="87.1999028%" y1="15.4332771%" x2="13.476491%" y2="84.0500576%" id="linearGradient-5">
            <stop stop-color="#FCEE21" offset="0%"></stop>
            <stop stop-color="#FABE2B" offset="23%"></stop>
            <stop stop-color="#F99333" offset="46%"></stop>
            <stop stop-color="#F87439" offset="67%"></stop>
            <stop stop-color="#F7623D" offset="85%"></stop>
            <stop stop-color="#F75B3E" offset="97%"></stop>
        </linearGradient>
        <linearGradient x1="29884.175%" y1="3801%" x2="14530.9153%" y2="18134%" id="linearGradient-6">
            <stop stop-color="#FCEE21" offset="0%"></stop>
            <stop stop-color="#F15A24" offset="100%"></stop>
        </linearGradient>
        <linearGradient x1="28211%" y1="1899.48763%" x2="12811%" y2="16182.1957%" id="linearGradient-7">
            <stop stop-color="#FCEE21" offset="0%"></stop>
            <stop stop-color="#F15A24" offset="100%"></stop>
        </linearGradient>
    </defs>
    <g id="Page-1" stroke="none" stroke-width="1" fill="none" fill-rule="evenodd">
        <g id="Moon-wallet-3-06" transform="translate(-113.000000, 0.000000)" fill-rule="nonzero">
            <g id="Group" transform="translate(113.000000, 0.000000)">
                <path d="M62.63,128.45 C61.7145592,128.610913 60.9007196,129.129349 60.3679522,129.890981 C59.8351848,130.652614 59.6272492,131.594884 59.79,132.51 C60.0536965,133.982602 59.7150254,135.499416 58.85,136.72 C57.3759413,138.832205 54.6581894,139.677421 52.2462043,138.773769 C49.8342193,137.870117 48.3408722,135.44721 48.6175587,132.886409 C48.8942451,130.325607 50.8706606,128.277597 53.42,127.91 C54.6579253,127.731367 55.7065161,126.905879 56.1707782,125.744487 C56.6350404,124.583096 56.4444414,123.262246 55.6707782,122.279487 C54.897115,121.296729 53.6579253,120.801367 52.42,120.98 C47.2953168,121.730295 43.1469084,125.53102 41.9520416,130.570624 C40.7571747,135.610229 42.7576597,140.868827 47,143.84 C51.1879424,146.767072 56.726248,146.88493 61.0349217,144.13867 C65.3435954,141.39241 67.5751399,136.32221 66.69,131.29 C66.5315799,130.37329 66.0137189,129.557768 65.2514127,129.02453 C64.4891066,128.491291 63.5454534,128.284472 62.63,128.45 Z" id="Shape" fill="url(#linearGradient-1)"></path>
                <path d="M59.13,71.86 C61.063157,69.1165884 61.815961,65.7127615 61.22,62.41 C60.8368915,60.554848 59.0473617,59.3411795 57.1820803,59.6714615 C55.3167988,60.0017436 54.0528107,61.7560931 54.33,63.63 C54.7150676,65.8898193 53.6915163,68.1574568 51.7420393,69.3635248 C49.7925624,70.5695928 47.3064911,70.4732267 45.4562235,69.1198715 C43.605956,67.7665162 42.7610104,65.4264513 43.3198518,63.2032202 C43.8786932,60.979989 45.729715,59.3175946 48,59 C49.2848085,58.8771246 50.3977235,58.0571246 50.8957415,56.8664066 C51.3937595,55.6756887 51.196047,54.3075185 50.3813049,53.3065057 C49.5665629,52.305493 48.2670321,51.8341123 47,52.08 C43.5603182,52.5878537 40.4800842,54.4858852 38.48,57.33 C34.6703725,63.044016 36.1201155,70.7544082 41.7449547,74.694513 C47.3697938,78.6346177 55.1115046,77.3626834 59.18,71.83 L59.13,71.86 Z" id="Shape" fill="url(#linearGradient-2)"></path>
                <path d="M101.39,118.34 C85.8100474,118.37866 73.2113405,131.040047 73.2500004,146.62 C73.2886604,162.199953 85.9500474,174.79866 101.53,174.76 L101.67,174.76 C111.42162,174.741509 120.465412,169.665023 125.56,161.35 C126.576204,159.693146 126.056854,157.526204 124.4,156.51 C122.743146,155.493796 120.576204,156.013146 119.56,157.67 C115.726047,163.937945 108.907539,167.760098 101.56,167.76 L101.45,167.76 C92.8878684,167.761952 85.1642486,162.615678 81.8689474,154.713077 C78.5736462,146.810477 80.3530017,137.701562 86.38,131.62 C90.3337103,127.597155 95.7395152,125.333925 101.38,125.34 C109.891251,125.28934 117.611611,130.322133 121,138.13 C121.767676,139.905595 123.829405,140.722676 125.605,139.955 C127.380595,139.187324 128.197676,137.125595 127.43,135.35 C122.948467,124.969433 112.696447,118.272549 101.39,118.34 Z" id="Shape" fill="url(#linearGradient-3)"></path>
                <path d="M138.26,178.85 C140.506829,180.718918 143.337485,181.741492 146.26,181.74 C146.673333,181.74 147.083333,181.72 147.49,181.68 C154.437197,181.01071 159.527154,174.837403 158.86,167.89 C158.674985,165.957003 156.957997,164.539985 155.025,164.725 C153.092003,164.910016 151.674985,166.627003 151.86,168.56 C152.082553,170.844989 150.897856,173.036848 148.864326,174.102427 C146.830795,175.168006 144.354303,174.894626 142.602162,173.411147 C140.850022,171.927668 140.171943,169.530178 140.887544,167.348751 C141.603144,165.167325 143.569597,163.637353 145.86,163.48 C147.11043,163.397829 148.222036,162.654803 148.776089,161.530814 C149.330141,160.406825 149.242466,159.072632 148.546089,158.030814 C147.849712,156.988996 146.65043,156.397829 145.4,156.48 C140.233072,156.820908 135.797682,160.281144 134.209905,165.209869 C132.622128,170.138594 134.203672,175.537171 138.2,178.83 L138.26,178.85 Z" id="Shape" fill="url(#linearGradient-4)"></path>
                <path d="M195.41,51.71 C193.72,48.82 191.86,45.99 189.9,43.28 C188.412888,41.2386869 185.754925,40.4270493 183.381148,41.2893979 C181.007371,42.1517466 179.49013,44.4801574 179.66,47 C179.920284,54.9835407 174.377302,61.9878531 166.547628,63.569268 C158.717954,65.150683 150.890975,60.8467967 148.032275,53.3880765 C145.173576,45.9293563 148.119036,37.4967232 155,33.44 C157.770882,31.7922921 160.971705,31.0121134 164.19,31.2 C166.704333,31.3871607 169.040208,29.8915603 169.922446,27.5296638 C170.804684,25.1677672 170.02132,22.5070389 168,21 C125.043851,-11.1824916 64.6874969,-5.56488827 28.4084459,33.9923351 C-7.87060514,73.5495585 -8.25894131,134.165532 27.510306,174.184332 C63.2795533,214.203133 123.558978,220.593589 166.923938,188.964114 C210.288898,157.334638 222.618623,97.9846183 195.44,51.7 L195.41,51.71 Z M149.41,89.12 C150.401428,90.7785732 152.546945,91.3238923 154.21,90.34 C166.34352,83.1492024 181.847569,85.38152 191.459577,95.7033016 C201.071586,106.025083 202.195558,121.648637 194.16,133.24 C185.774073,145.193932 169.999264,149.373653 156.794441,143.140443 C143.589618,136.907233 136.790724,122.071813 140.69,108 C141.206399,106.140767 140.120614,104.214326 138.262665,103.693328 C136.404715,103.172331 134.475593,104.253345 133.95,106.11 C129.485027,122.083815 136.195761,139.077257 150.370143,147.690365 C164.544526,156.303474 182.718871,154.431528 194.84,143.11 C177.348402,183.668784 134.731464,207.357127 91.051028,200.800415 C47.3705921,194.243702 13.586657,159.087099 8.77388469,115.180287 C3.96111241,71.273474 29.3270912,29.6332517 70.55,13.77 C60.1514019,25.0693694 58.0081974,41.6978527 65.201857,55.264645 C72.3955166,68.8314373 87.3623387,76.3874956 102.55,74.12 C103.787925,73.9413672 104.836516,73.1158784 105.300778,71.9544873 C105.76504,70.7930962 105.574441,69.4722456 104.800778,68.4894873 C104.027115,67.506729 102.787925,67.0113672 101.55,67.19 C87.7058606,69.2554482 74.3433983,61.2062515 69.6969785,48.0025757 C65.0505587,34.7988998 70.4273449,20.155296 82.5139941,13.0956087 C94.6006433,6.03592146 109.996854,8.54623183 119.215002,19.0796084 C128.43315,29.612985 128.879921,45.206104 120.28,56.25 C119.468726,57.2325075 119.255478,58.5782746 119.723265,59.7634593 C120.191052,60.948644 121.26596,61.7859821 122.529581,61.9495385 C123.793201,62.1130949 125.045876,61.577027 125.8,60.55 C132.035086,52.5456183 134.625846,42.2924639 132.941476,32.2869993 C131.257105,22.2815347 125.452145,13.4417584 116.94,7.92 C132.623758,9.75753023 147.623296,15.3900799 160.64,24.33 C148.54025,25.7042157 139.521467,36.1358937 139.910318,48.3072211 C140.29917,60.4785486 149.965428,70.3132735 162.128221,70.9123452 C174.291014,71.5114168 184.876948,62.6742024 186.46,50.6 C187.48,52.1333333 188.453333,53.6866667 189.38,55.26 C197.37361,68.7866444 201.952235,84.0567391 202.72,99.75 C199.980349,94.1356962 195.849248,89.3160785 190.72,85.75 C178.813729,77.4944801 163.189078,76.9319927 150.72,84.31 C149.910466,84.7762947 149.320222,85.5460757 149.079975,86.448881 C148.839727,87.3516864 148.9693,88.3130193 149.44,89.12 L149.41,89.12 Z" id="Shape" fill="url(#linearGradient-5)"></path>
                <path d="M127.56,86.84 C126.638272,86.9524907 125.799023,87.4266473 125.226992,88.1580964 C124.654961,88.8895455 124.397039,89.8183294 124.51,90.74 C124.782322,93.0019748 123.666982,95.2056479 121.68296,96.3256247 C119.698939,97.4456015 117.23593,97.2619006 115.44,95.86 C113.614785,94.4304952 112.850272,92.0296723 113.512806,89.807974 C114.17534,87.5862757 116.129945,85.9963229 118.44,85.8 C120.372997,85.6205074 121.794492,83.9079966 121.615,81.975 C121.435507,80.0420034 119.722997,78.6205075 117.79,78.8 C112.633752,79.2792918 108.291422,82.8552109 106.83214,87.823823 C105.372859,92.7924351 107.091846,98.1485635 111.17,101.34 C115.197034,104.486929 120.722885,104.899115 125.172229,102.384458 C129.621574,99.8698012 132.11877,94.9231933 131.5,89.85 C131.380735,88.9265147 130.897376,88.0889817 130.15744,87.5237003 C129.417503,86.9584189 128.482352,86.7122676 127.56,86.84 Z" id="Shape" fill="url(#linearGradient-6)"></path>
                <path d="M61,110 C64.423787,113.686074 69.181476,115.847022 74.21,116 L74.85,116 C83.7124898,115.974571 91.3802807,109.825402 93.33,101.18 C93.709781,99.4439515 93.8510824,97.6642267 93.75,95.89 C93.6340202,93.9570034 91.9729966,92.4840203 90.04,92.6000001 C88.1070034,92.7159798 86.6340202,94.3770034 86.75,96.31 C86.8205752,97.4338319 86.72965,98.5619773 86.48,99.66 C85.168945,105.544325 79.6801906,109.530624 73.6789337,108.956987 C67.6776767,108.38335 63.0434824,103.429438 62.8709025,97.403298 C62.6983226,91.3771582 67.0414084,86.1661495 73,85.25 C74.2260157,85.0599997 75.4739843,85.0599997 76.7,85.25 C78.6109052,85.5427109 80.3972891,84.2309052 80.69,82.32 C80.9827109,80.4090948 79.6709052,78.6227109 77.76,78.33 C69.7927626,77.1481283 61.9460596,81.118151 58.1786311,88.2371521 C54.4112027,95.3561532 55.5417898,104.077025 61,110 Z" id="Shape" fill="url(#linearGradient-7)"></path>
            </g>
        </g>
    </g>
</svg>