<svg version="1" xmlns="http://www.w3.org/2000/svg" width="836" height="836" viewBox="0 0 627.000000 627.000000"><path d="M291.9.4c-.2.2-3.5.6-7.4.9-27.9 2.4-57.7 9.6-85.5 20.5-11.8 4.6-43.1 20.1-46 22.7-.9.8-2 1.5-2.4 1.5-1 0-14.5 9.1-23.6 15.9-52.5 39.2-91.9 94.6-111.3 156.2-3.7 11.6-8 28.8-9.1 36.3-.4 2.1-.8 4.1-1 4.5-.2.3-.7 3.1-1 6.1-.3 3-.8 6.4-1 7.5-2.8 14.2-2.8 66.5 0 80.9.2 1.2.6 4 .9 6.3C7 381 17.5 416.7 28 440c22 48.8 50.3 84.5 96.4 121.7 10.6 8.6 34.8 23.5 51.2 31.6 23.2 11.4 56.2 22.6 77.4 26.3 2.5.4 4.7.8 5 .9 20.6 4.8 71.6 6.5 92 3 1.4-.2 5.9-.9 10-1.4 8.1-1.2 12.7-1.9 15-2.6.8-.2 3.1-.7 5-1 10.4-1.7 34.1-9 49.4-15.1 70-28.2 126.9-79.6 161.8-146.4 11.1-21.2 20.5-46.3 26.4-70 1.6-6.7 5.3-25.6 5.8-30.1.4-3.1.9-6.7 1.1-8 2.3-11.2 2.3-60.9.1-72.4-.2-1.1-.7-4.3-1.1-7-.4-2.8-.8-6.1-1-7.5-.2-1.4-1.1-6.1-2-10.5-.9-4.4-1.8-8.7-2-9.5-3.5-17.3-13.6-45.8-23.3-66-7-14.5-20.2-36.9-23.9-40.8-.7-.7-1.3-1.7-1.3-2.1 0-1.6-7.7-9.1-10.4-10.1-7.1-2.7-16.4.3-20.4 6.6-1.9 2.8-2.5 5.4-2.8 11.8-.9 16.7-8 30.6-20.4 39.7-18.9 13.9-46 12.1-62.9-4.3-4.8-4.7-10.9-14.3-12.7-20.2-2.7-8.7-2.7-20.9.1-29.4 6.7-20.9 23.4-33.4 46.2-34.6 13-.7 18-3.8 20.4-12.8 1.6-5.7.1-11.6-3.9-15.7-2.5-2.6-26.4-19.1-27.6-19.1-.3 0-3-1.5-5.9-3.4-6.2-4-28.9-15-39.2-19.1-15.8-6.3-38.5-13.2-53-16.1-7.4-1.5-20.9-3.6-25.5-4-3-.3-6.2-.8-7-1.1-1.6-.6-52.5-1.5-53.1-.9zm7.9 24c26.7 4.3 51.6 22.5 63.7 46.6 3.6 7.1 7.2 17.4 8.1 22.9.3 1.8.8 4.3 1 5.5.8 4.2.5 21.2-.5 26.1-1.7 8.1-1.8 8.8-3.6 14-2.4 6.8-6 13.9-10.8 21-2.2 3.2-4.3 7.3-4.7 9.1-1.7 7.4 5.5 13.8 13 11.5 3-.9 4.8-2.6 8.9-8.5 2.8-4.1 5.1-7.8 5.1-8.2 0-.4.6-1.5 1.4-2.3 2.1-2.5 7.3-15.9 9.4-24.6 7.7-30.6 2.4-60.9-15.3-87.5-4.6-6.9-15.7-19-22.3-24.3l-3.4-2.7 3.7.5c30.6 3.9 67.3 15.7 96 30.9 13.4 7.1 28.8 16.7 28 17.4-.3.4-3.4 1.2-6.8 1.9-7.6 1.5-19.3 7.2-26.7 12.8-10.8 8.3-19.5 21-23.7 34.5-3.4 10.7-3.8 27.6-1 38 12.5 45.9 64.9 66.8 105.1 41.9 8.5-5.3 19.6-17.4 24.3-26.4 4.1-8.1 7.3-17.4 7.3-21.5v-2.3l1.8 2.4c7 9 20.5 35.1 27.6 53.2 7.4 18.8 15 47.4 17.1 64.2.4 2.7.8 6 1 7.3.2 1.2.7 6.2 1 11l.7 8.7-3.7-6c-10-16.5-22.5-29.1-38.5-38.9-9.8-6-25.5-12.1-36.5-14-1.6-.3-4.1-.8-5.5-1.1-3.8-.9-24.9-.9-30 0-14.9 2.5-27 6.5-38.2 12.5-7.2 3.9-8.9 6-9 10.7 0 4.4 1.4 7.3 4.6 9.3 3.8 2.5 7.8 1.8 16.6-2.6 8.5-4.2 19.6-7.8 28-9 6.7-.9 19-1.1 23.5-.3 2.2.4 5.7 1 7.8 1.3 5.4.9 15.1 4.2 22.1 7.8 21.6 10.9 38.3 30.7 45.4 54 2.8 9 3.7 16.4 3.6 28.8-.3 23-9.3 44-26.4 61-26.1 26.2-64.8 33.5-99 18.7-38.9-16.8-61-59.8-51.9-101.2.9-4.4 1.5-9.3 1.2-10.8-.8-4-5.7-7.7-10.2-7.7-9.9 0-13.6 10.6-13.5 38.5 0 16.6 1.8 26.2 7.5 40.3 20.2 50.7 76.9 79.6 129.5 66.2 15.9-4.1 32.9-12.6 43.5-21.9 6.3-5.5 6.1-4.5-2.1 11.4-10.5 20.4-20 35-34.1 52.5-9.7 12.1-30.7 33.3-40 40.5-26.9 20.8-44.4 31.5-71.9 43.8-7.6 3.4-19.9 7.6-38 13.2-5.4 1.6-23.3 5.5-27.5 6-1.6.1-4.6.6-6.5.9-20.1 3.7-57.2 3.9-81.3.6-26.4-3.7-57.3-12.4-77.7-21.7-56.8-25.9-99.1-62.5-131-113.3-16-25.3-30.4-59.9-36.5-87.5-.3-1.1-.8-3.4-1.2-5-.4-1.7-.7-3.2-.8-3.5-.1-.3-.5-3-1-6s-.9-5.7-1-6c-.1-.3-.5-3-.9-6-.5-3-1-6.4-1.2-7.4-.6-3.1-1.7-27.4-1.7-35.3.1-8 1.1-25.5 1.7-29.3.3-1.4.7-4.8 1.1-7.5 2.1-18.3 10.2-50.2 16.5-65 .4-1.1 1.8-4.5 3-7.5 14-34.5 34.8-65.6 62.5-93.6 16-16.1 29.3-27 48-39.3 11.8-7.8 43.3-24.6 44.3-23.6.2.2-.9 2.3-2.5 4.7-12.5 18.4-19.1 39.6-19.1 61.3 0 6 .4 13.2.9 16 .5 2.7 1.1 5.9 1.3 7 1.7 8.9 6.4 21.1 11.9 31 15.9 28.1 43.9 47.7 76.7 53.5 8.3 1.5 28.3 1.6 33.6.1 6.9-1.9 10.4-7.8 8.2-14.1-1.2-3.5-5.5-6.3-9.2-6.2-15.9.5-26.1.1-32.1-1.1-30.3-6.4-54-27-65.1-56.4-1.3-3.4-2.6-7.5-2.9-9-.3-1.5-.7-3.9-1.1-5.3-.3-1.4-.7-7.2-.8-13-1.2-44 30.8-82.2 74.4-88.8 6.3-.9 20.4-.8 26.8.2z"/><path d="M131 157.1c-12.2 4.3-20.8 13.6-23.9 26.2-8.4 32.7 26.3 58.9 55.6 42 5.7-3.3 12-10.4 14.9-16.8 3.2-6.9 3.5-8.6 3.4-16.4-.1-9.3-3.6-14.1-10.5-14.1-6.7 0-10.5 4.8-10.4 13.2.1 9.2-4.2 15.4-12.4 17.6-10.9 3-20.8-4.8-20.9-16.5 0-7.5 4.9-13.6 12.9-15.9 6.4-1.9 9.1-4 10.1-7.9 1.3-4.6-.3-9.1-4.2-11.4-3.9-2.4-7.7-2.4-14.6 0zM208.5 225.6c-26.9 4.6-48.7 26.1-53.5 52.6-5.4 29.5 8.8 58 35.4 71.2 10.9 5.5 19.9 7.5 32.1 7 34.9-1.1 63.4-30.4 63.5-65.2 0-9.3-3.3-14.1-9.7-14.2-7.9 0-11 3.7-11.4 14-.4 12.5-5.1 23.3-13.4 31.6-15.3 15-39 17.2-56.7 5.1-12.9-8.8-19.6-21.7-19.6-37.3 0-14.9 6.2-27.3 18-36 8.3-6.1 17.1-8.8 28.3-8.6 10.4.1 14-1 16-4.9 3-5.7 1.2-11.9-4.1-14.4-4.3-2-16-2.5-24.9-.9zM346.2 236.1c-9.2 1.7-18.7 8.3-24 16.6-12.4 19.4-5.1 44.7 15.8 54.7 5.5 2.6 7.8 3.1 15 3.3 7.1.1 9.5-.3 15-2.4 8.7-3.6 17.8-12.6 21-20.9 2.8-7.3 3.4-17.9 1.3-22.2-2.5-5.3-9-7.1-14.8-4.1-3.2 1.6-4.6 4.5-5 10.8-.4 6.2-1.7 10.5-3.9 12.6-10.3 10.4-27.8 5-29.4-9-1-9.3 5.2-17.3 14.7-19 8-1.4 12.1-8.7 8.6-15.4-2.5-4.9-6.8-6.4-14.3-5zM285.5 355.5c-31.4 7-54.4 27.4-64.4 57.1-2.8 8.4-3.3 11.5-3.7 23.9-1.4 42.3 28.5 78.4 71 85.6 4.1.7 11.5.9 18 .6 20.7-1 37.6-8 53.3-22.1 7-6.3 15.2-17.8 15.7-21.8.9-8.2-8.1-14.4-15.1-10.5-1.2.7-4.4 4.2-7.2 7.9s-7.7 8.8-10.8 11.4c-6.4 5.2-19.9 12-25.8 13-2.1.3-4.7.8-5.9 1-4.5.9-15.4.5-22.3-1-18.1-3.8-34.3-16.1-43.1-32.9-2.8-5.5-3.9-8.5-5.9-16.2-1.2-4.6-1-21 .3-26.8 6.5-28.5 32.9-49.5 62.1-49.5 16.6 0 29.8 5.2 44.2 17.4 3.4 2.9 9.4 11.2 13 18 4.3 8.1 8.7 10.5 14.8 7.9 3.9-1.6 6.6-5.7 6.5-9.4-.1-4.8-7.4-17.8-14.2-25.6-11.9-13.4-24.9-21.6-42.3-26.6-9.1-2.6-29.4-3.3-38.2-1.4zM144.2 365.1c-30.9 14.9-28.7 58.3 3.5 69.9 17.2 6.2 37.8-2.2 45.9-18.7 3-6.1 3.8-9.8 3.8-17.5-.1-7.1-1.9-11.5-5.5-13.3-4.4-2.3-8.5-1.9-12 1.3-2.8 2.5-3.1 3.3-3.3 9.7-.3 9-2.6 13.8-8.1 17-9.7 5.7-22.4.6-25.1-10.2-2.1-8.2 4.1-18.1 12.6-20.3 5.8-1.5 8.6-3.8 9.8-8.2 1.1-3.9-.2-8.3-3.3-10.8-3.2-2.7-11.4-2.2-18.3 1.1zM428 469.4c-11.7 2.5-21.7 10.5-26.8 21.4-2.4 5-2.7 6.9-2.7 15.7.1 8.9.4 10.6 2.9 15.8 9.9 20.5 35.8 28 55 16 11.3-7.1 17.6-18.9 17.3-32.2-.2-6.2-.5-7.4-2.9-9.7-1.8-1.9-3.9-2.8-6.9-3-3.7-.2-4.7.2-7.6 3.1-2.9 2.9-3.3 3.9-3.3 8.6 0 3.7-.7 6.4-2.5 9.4-3.1 5.5-6.4 7.5-13 8.2-15.6 1.6-24.2-16.8-13.1-28.1 3-3.1 8.6-5.6 12.7-5.6 2.2 0 6.6-4.5 7.3-7.6.9-3.5-1-8.9-3.7-10.7-3.5-2.2-6.8-2.6-12.7-1.3z"/></svg>