<svg xmlns="http://www.w3.org/2000/svg" viewBox="0 0 512.001 512.001"><path d="M314.372 364.409c4.992 9.563 5.293 19.117.912 28.67-1.834 4-6.867 5.353-10.536 2.917l-35.116-23.247L305.7 360.91c3.359-1.102 7.038.371 8.672 3.499zm-49.951 8.34l-35.116 23.247c-3.669 2.436-8.701 1.083-10.536-2.917-4.381-9.553-4.08-19.107.912-28.67 1.634-3.128 5.313-4.601 8.671-3.499l36.069 11.839z" fill="#ed3124"/><path d="M469.31 157.635c0 54.162-30.675 99.312-71.384 109.577a3.323 3.323 0 0 0-2.506 3.228v4.441c0 8.531-7.067 15.408-15.668 15.107-8.19-.291-14.566-7.268-14.566-15.468v-4.08a3.323 3.323 0 0 0-2.506-3.228c-40.709-10.265-71.384-55.415-71.384-109.577 0-61.731 39.847-111.773 89.007-111.773s89.007 50.042 89.007 111.773z" fill="#34d6d2"/><path d="M358.961 157.635c0-46.689 22.798-86.684 55.175-103.406-10.431-5.388-21.854-8.366-33.833-8.366-49.16 0-89.007 50.042-89.007 111.773 0 54.162 30.675 99.312 71.384 109.577a3.323 3.323 0 0 1 2.506 3.228v4.08c0 8.2 6.376 15.177 14.566 15.468 8.601.301 15.668-6.576 15.668-15.107v-4.441a3.323 3.323 0 0 1 2.506-3.228c5.615-1.416 11.03-3.518 16.21-6.193-32.369-16.722-55.175-56.695-55.175-103.385z" fill="#20c6aa"/><path d="M218.699 157.635c0 54.162-30.675 99.312-71.384 109.577a3.323 3.323 0 0 0-2.506 3.228v4.441c0 8.531-7.067 15.408-15.668 15.107-8.19-.291-14.566-7.268-14.566-15.468v-4.08a3.323 3.323 0 0 0-2.506-3.228c-40.709-10.265-71.384-55.415-71.384-109.577 0-61.731 39.847-111.773 89.007-111.773s89.007 50.042 89.007 111.773z" fill="#e8b62a"/><path d="M361.257 140.964c0 64.658-36.619 118.559-85.228 130.819a3.97 3.97 0 0 0-2.987 3.849v5.303c0 10.185-8.441 18.395-18.706 18.034-9.774-.351-17.382-8.681-17.382-18.465v-4.872a3.97 3.97 0 0 0-2.987-3.849c-48.609-12.26-85.228-66.161-85.228-130.819 0-73.7 47.576-133.446 106.259-133.446s106.259 59.746 106.259 133.446z" fill="#ff7400"/><path d="M108.35 157.635c0-46.689 22.798-86.684 55.175-103.406-10.431-5.388-21.854-8.366-33.833-8.366-49.16 0-89.007 50.042-89.007 111.773 0 54.162 30.675 99.312 71.384 109.577a3.323 3.323 0 0 1 2.506 3.228v4.08c0 8.2 6.376 15.177 14.566 15.468 8.601.301 15.668-6.576 15.668-15.107v-4.441a3.324 3.324 0 0 1 2.506-3.228c5.615-1.416 11.03-3.518 16.21-6.193-32.37-16.722-55.175-56.695-55.175-103.385z" fill="#eaa428"/><path d="M216.403 140.964c0-58.845 30.33-108.789 72.427-126.535-10.628-4.48-22.004-6.911-33.833-6.911-58.683 0-106.259 59.746-106.259 133.446 0 64.658 36.619 118.559 85.228 130.819a3.97 3.97 0 0 1 2.987 3.849v4.872c0 9.784 7.609 18.114 17.382 18.465 10.265.361 18.706-7.849 18.706-18.034v-5.303a3.97 3.97 0 0 1 2.987-3.849 88.92 88.92 0 0 0 12.801-4.301c-42.093-17.745-72.426-67.675-72.426-126.518z" fill="#f50"/><path d="M498.852 292.995c2.757 1.504 2.757 5.453 0 6.957l-9.533 5.223a3.838 3.838 0 0 0-1.574 1.574l-5.223 9.533c-1.504 2.757-5.453 2.757-6.957 0l-5.223-9.533a3.838 3.838 0 0 0-1.574-1.574l-9.533-5.223c-2.757-1.504-2.757-5.453 0-6.957l9.533-5.223a3.838 3.838 0 0 0 1.574-1.574l5.223-9.533c1.504-2.757 5.453-2.757 6.957 0l5.223 9.533a3.838 3.838 0 0 0 1.574 1.574l9.533 5.223zm-64.156-128.313c2.757 1.504 2.757 5.453 0 6.957l-9.533 5.223a3.838 3.838 0 0 0-1.574 1.574l-5.223 9.533c-1.504 2.757-5.453 2.757-6.957 0l-5.223-9.533a3.838 3.838 0 0 0-1.574-1.574l-9.533-5.223c-2.757-1.504-2.757-5.453 0-6.957l9.533-5.223a3.838 3.838 0 0 0 1.574-1.574l5.223-9.533c1.504-2.757 5.453-2.757 6.957 0l5.223 9.533a3.838 3.838 0 0 0 1.574 1.574l9.533 5.223zM52.764 34.364c2.757 1.504 2.757 5.453 0 6.957l-9.533 5.223a3.838 3.838 0 0 0-1.574 1.574l-5.223 9.533c-1.504 2.757-5.453 2.757-6.957 0l-5.223-9.533a3.838 3.838 0 0 0-1.574-1.574l-9.533-5.223c-2.757-1.504-2.757-5.453 0-6.957l9.533-5.223a3.838 3.838 0 0 0 1.574-1.574l5.223-9.533c1.504-2.757 5.453-2.757 6.957 0l5.223 9.533a3.838 3.838 0 0 0 1.574 1.574l9.533 5.223z" fill="#e8b62a"/><path d="M476.83 157.635c0-65.777-43.301-119.291-96.525-119.291-13.549 0-26.991 3.53-39.276 10.264C319.999 18.592 289.001 0 254.998 0c-30.72 0-59.492 14.888-81.017 41.92a136.107 136.107 0 0 0-5 6.693c-12.282-6.735-25.747-10.27-39.288-10.27-53.225 0-96.525 53.514-96.525 119.291 0 27.432 7.696 54.206 21.668 75.39 13.346 20.232 31.786 34.543 52.222 40.606v.889c0 10.424 6.715 19.196 16.081 22.033l10.386 64.051a70.279 70.279 0 0 1-5.76 41.242l-4.053 8.645c-7.708 16.445-9.991 35.309-6.43 53.116a7.521 7.521 0 0 0 8.848 5.899 7.52 7.52 0 0 0 5.898-8.847c-2.936-14.68-1.055-30.229 5.3-43.785l4.053-8.645c7.34-15.66 9.756-32.96 6.988-50.031l-10.111-62.348a22.613 22.613 0 0 0 7.158-4.685c4.457-4.305 6.912-10.087 6.912-16.281v-1.249c12.408-3.68 24.186-10.44 34.493-19.78 12.629 11.699 27.155 20.106 42.615 24.5v2.153c0 12.1 8.001 22.232 19.028 25.149l9.24 56.977-27.004-8.863c-6.892-2.266-14.329.744-17.683 7.161-6.097 11.681-6.46 23.551-1.081 35.284a14.588 14.588 0 0 0 9.288 7.949c1.336.381 2.703.567 4.062.567 2.88 0 5.724-.841 8.17-2.465l27.698-18.336c2.545 16.801.084 33.792-7.136 49.196l-4.838 10.32c-9.203 19.634-11.82 41.249-7.567 62.508a7.521 7.521 0 0 0 8.848 5.899 7.52 7.52 0 0 0 5.898-8.847c-3.617-18.087-1.391-36.476 6.438-53.178l4.838-10.32c7.812-16.668 10.885-34.917 8.991-53.117l23.969 15.869a14.78 14.78 0 0 0 12.24 1.903 14.596 14.596 0 0 0 9.288-7.95c5.379-11.732 5.016-23.603-1.083-35.287-3.351-6.412-10.784-9.424-17.679-7.158l-30.248 9.928-9.514-58.67a25.493 25.493 0 0 0 9.157-5.701c5.035-4.862 7.808-11.392 7.808-18.389v-2.584c15.381-4.377 29.952-12.811 42.604-24.51 10.308 9.345 22.08 16.103 34.504 19.789v.889c0 10.424 6.715 19.196 16.081 22.033l10.386 64.051a70.279 70.279 0 0 1-5.76 41.242l-4.053 8.645c-7.708 16.445-9.991 35.309-6.43 53.116a7.521 7.521 0 0 0 8.848 5.899 7.52 7.52 0 0 0 5.898-8.847c-2.936-14.68-1.055-30.229 5.3-43.785l4.053-8.645c7.34-15.66 9.756-32.96 6.988-50.031l-10.111-62.348a22.613 22.613 0 0 0 7.158-4.685c4.457-4.305 6.912-10.087 6.912-16.281v-1.249c20.428-6.058 38.874-20.371 52.222-40.607 13.97-21.187 21.666-47.962 21.666-75.393zM225.425 389.548c-3.168-7.175-2.904-14.193.798-21.423l21.101 6.926-21.899 14.497zm82.406-21.423c3.703 7.234 3.965 14.249.798 21.423l-21.899-14.497 21.101-6.926zm-162.34-108.208a10.824 10.824 0 0 0-8.201 10.523v4.441c0 2.078-.824 4.02-2.32 5.464-1.499 1.446-3.451 2.191-5.564 2.129-4.032-.143-7.314-3.712-7.314-7.955v-4.079c0-4.989-3.372-9.316-8.186-10.519-38.072-9.598-65.704-52.616-65.704-102.287 0-57.486 36.556-104.254 81.489-104.254 10.904 0 21.412 2.691 31.317 8.007-12.864 23.254-19.789 50.771-19.789 79.577 0 32.466 9.101 64.143 25.628 89.198a133.694 133.694 0 0 0 9.582 12.81c-9.286 8.34-19.888 14.16-30.938 16.945zm250.612 0a10.824 10.824 0 0 0-8.201 10.523v4.441c0 2.078-.824 4.02-2.32 5.464-1.498 1.446-3.442 2.191-5.564 2.129-4.032-.143-7.314-3.712-7.314-7.955v-4.079c0-4.989-3.372-9.316-8.186-10.519-11.069-2.791-21.666-8.608-30.956-16.949a130.915 130.915 0 0 0 6.418-8.214c16.341-22.717 26.137-50.726 28.332-80.997a7.518 7.518 0 1 0-14.997-1.087c-3.994 55.094-36.531 101.077-79.118 111.817a11.465 11.465 0 0 0-8.674 11.141v5.303c0 2.88-1.143 5.57-3.216 7.571a10.477 10.477 0 0 1-7.256 2.954l-.158.001a9.287 9.287 0 0 1-.288-.006c-5.588-.201-10.134-5.114-10.134-10.952v-4.872c0-5.278-3.568-9.859-8.667-11.139-46.092-11.626-79.548-63.577-79.548-123.529 0-69.437 44.295-125.927 98.741-125.927 47.365 0 88.16 43.03 97.004 102.315a7.518 7.518 0 1 0 14.872-2.218c-2.952-19.789-9.168-37.968-17.885-53.752 9.898-5.314 20.403-8.002 31.314-8.002 44.933 0 81.489 46.768 81.489 104.254.002 49.672-27.631 92.69-65.688 102.284zm106.362 26.485l-8.624-4.725-4.721-8.618a11.474 11.474 0 0 0-10.076-5.981 11.471 11.471 0 0 0-10.072 5.974l-4.725 8.624-8.613 4.719c-3.692 2.014-5.986 5.875-5.986 10.079s2.294 8.065 5.974 10.072l8.624 4.725 4.719 8.613c2.014 3.692 5.875 5.986 10.079 5.986s8.065-2.294 10.072-5.974l4.725-8.624 8.613-4.719c3.692-2.014 5.986-5.875 5.986-10.079s-2.295-8.065-5.975-10.072zm-16.707 12.15a11.302 11.302 0 0 0-4.606 4.583l-2.108 3.846-2.079-3.795a11.302 11.302 0 0 0-4.583-4.606l-3.846-2.108 3.795-2.079a11.302 11.302 0 0 0 4.606-4.583l2.108-3.846 2.079 3.795a11.302 11.302 0 0 0 4.583 4.606l3.846 2.108-3.795 2.079z"/><path d="M438.309 158.089l-8.624-4.725-4.721-8.618a11.474 11.474 0 0 0-10.076-5.981 11.471 11.471 0 0 0-10.072 5.974l-4.725 8.624-8.613 4.719c-3.692 2.014-5.986 5.875-5.986 10.079s2.294 8.065 5.974 10.072l8.624 4.725 4.719 8.613c2.014 3.692 5.875 5.986 10.079 5.986s8.065-2.294 10.072-5.974l4.725-8.624 8.613-4.719c3.692-2.014 5.986-5.875 5.986-10.079s-2.295-8.065-5.975-10.072zm-16.707 12.15a11.302 11.302 0 0 0-4.606 4.583l-2.108 3.846-2.079-3.795a11.296 11.296 0 0 0-4.583-4.606l-3.846-2.108 3.795-2.079a11.302 11.302 0 0 0 4.606-4.583l2.108-3.846 2.079 3.795a11.302 11.302 0 0 0 4.583 4.606l3.846 2.108-3.795 2.079zM22.878 61.251c2.014 3.692 5.875 5.986 10.079 5.986s8.065-2.294 10.072-5.974l4.725-8.624 8.613-4.719c3.692-2.014 5.986-5.875 5.986-10.079s-2.294-8.065-5.974-10.072l-8.624-4.725-4.722-8.618a11.474 11.474 0 0 0-10.076-5.981 11.471 11.471 0 0 0-10.072 5.974l-4.725 8.624-8.613 4.719c-3.692 2.014-5.986 5.875-5.986 10.079s2.294 8.065 5.974 10.072l8.624 4.725 4.719 8.613zm3.364-25.488a11.296 11.296 0 0 0 4.606-4.583l2.108-3.846 2.079 3.795a11.296 11.296 0 0 0 4.583 4.606l3.846 2.108-3.795 2.079a11.296 11.296 0 0 0-4.606 4.583l-2.108 3.846-2.079-3.795a11.296 11.296 0 0 0-4.583-4.606l-3.846-2.108 3.795-2.079zm17.24 316.847A7.517 7.517 0 0 0 51 345.092v-7.518c0-4.153-3.365-7.518-7.518-7.518s-7.518 3.365-7.518 7.518v7.518a7.516 7.516 0 0 0 7.518 7.518zm20.55-2.005h-7.518c-4.153 0-7.518 3.365-7.518 7.518s3.365 7.518 7.518 7.518h7.518c4.153 0 7.518-3.365 7.518-7.518s-3.365-7.518-7.518-7.518zm-20.55 13.032a7.517 7.517 0 0 0-7.518 7.518v7.518c0 4.153 3.365 7.518 7.518 7.518S51 382.827 51 378.674v-7.518a7.517 7.517 0 0 0-7.518-7.519zM30.45 350.605h-7.518c-4.153 0-7.518 3.365-7.518 7.518s3.365 7.518 7.518 7.518h7.518c4.153 0 7.518-3.365 7.518-7.518s-3.365-7.518-7.518-7.518zm284.694 95.233a7.517 7.517 0 0 0 7.518-7.518v-7.518c0-4.153-3.365-7.518-7.518-7.518s-7.518 3.365-7.518 7.518v7.518a7.518 7.518 0 0 0 7.518 7.518zm20.55-2.005h-7.518c-4.153 0-7.518 3.365-7.518 7.518s3.365 7.518 7.518 7.518h7.518c4.153 0 7.518-3.365 7.518-7.518s-3.364-7.518-7.518-7.518zm-20.55 13.032a7.517 7.517 0 0 0-7.518 7.518v7.518c0 4.153 3.365 7.518 7.518 7.518s7.518-3.365 7.518-7.518v-7.518a7.516 7.516 0 0 0-7.518-7.518zm-13.032-13.032h-7.518c-4.153 0-7.518 3.365-7.518 7.518s3.365 7.518 7.518 7.518h7.518c4.153 0 7.518-3.365 7.518-7.518s-3.364-7.518-7.518-7.518z"/></svg>