<svg xmlns="http://www.w3.org/2000/svg" viewBox="0 0 512 512"><circle cx="256" cy="256" r="256" fill="#ee4b68"/><path d="M110.312 188.232h294.484c12.684 0 22.968 10.284 22.968 22.968v222.52H87.344V211.2c0-12.684 10.28-22.968 22.968-22.968z" fill="#656d7a"/><path fill="#70b1e1" d="M107.52 208.4H407.6v205.12H107.52z"/><path fill="#d2d2d4" d="M48.324 453.636H466.78l-39.02-19.924H87.344z"/><path fill="#656d7a" d="M48.32 453.64h418.44v17.716H48.32z"/><path d="M66.044 489.072h383.02c9.784 0 17.716-7.932 17.716-17.716H48.324c0 9.784 7.932 17.716 17.72 17.716z" fill="#4d535f"/><path fill="#353944" d="M227.964 453.64h59.172v17.716h-59.172z"/><circle cx="347.44" cy="269.48" r="38.772" fill="#f5ea07"/><g fill="#e8bb20"><path d="M347.444 302.704c-18.316 0-33.224-14.904-33.224-33.224s14.904-33.224 33.224-33.224 33.224 14.904 33.224 33.224-14.904 33.224-33.224 33.224zm0-60.588c-15.088 0-27.364 12.276-27.364 27.364s12.276 27.364 27.364 27.364 27.364-12.276 27.364-27.364c.004-15.088-12.272-27.364-27.364-27.364z"/><path d="M346.38 289.568v-3.536c-4.428-.452-8.4-2.212-11.924-5.28l3.536-4.216c2.716 2.36 5.512 3.764 8.384 4.216v-9.404c-3.652-.872-6.324-2.02-8.02-3.44-1.696-1.42-2.548-3.532-2.548-6.324 0-2.796.98-5.08 2.932-6.86 1.956-1.776 4.5-2.744 7.636-2.908v-2.424h3.104v2.472c3.552.26 6.916 1.472 10.08 3.636l-3.152 4.46c-2.132-1.52-4.444-2.456-6.932-2.812v9.112h.144c3.716.872 6.444 2.052 8.192 3.536 1.744 1.488 2.616 3.644 2.616 6.472s-1 5.132-3.004 6.908c-2.004 1.78-4.652 2.748-7.948 2.908v3.488h-3.096v-.004zm-3.416-31.284c-.824.724-1.236 1.632-1.236 2.712 0 1.084.32 1.94.968 2.568.648.632 1.872 1.236 3.684 1.82V257c-1.452.128-2.592.556-3.416 1.284zm10.204 21.252c.904-.74 1.356-1.68 1.356-2.812s-.356-2.028-1.068-2.688-2.036-1.284-3.972-1.864v8.724c1.548-.164 2.776-.616 3.684-1.36z"/></g><circle cx="410.2" cy="203.84" r="38.772" fill="#f5ea07"/><g fill="#e8bb20"><path d="M386.724 227.332c-12.952-12.952-12.952-34.032 0-46.984s34.032-12.952 46.984 0 12.952 34.032 0 46.984c-12.956 12.956-34.032 12.952-46.984 0zm42.84-42.84c-10.668-10.668-28.028-10.668-38.7 0s-10.668 28.028 0 38.7c10.668 10.668 28.028 10.668 38.7 0 10.672-10.672 10.668-28.032 0-38.7z"/><path d="M395.256 217.292l2.5-2.5c-2.812-3.448-4.376-7.504-4.696-12.164l5.484-.48c.252 3.588 1.236 6.556 2.948 8.912l6.648-6.648c-1.968-3.2-3.044-5.9-3.24-8.104-.192-2.204.696-4.296 2.672-6.272 1.976-1.976 4.284-2.9 6.924-2.776s5.124 1.24 7.452 3.344l1.712-1.712 2.192 2.192-1.748 1.748c2.328 2.696 3.848 5.928 4.556 9.7l-5.38.924c-.432-2.58-1.404-4.876-2.912-6.888l-6.444 6.444.104.104c2.008 3.244 3.104 6.008 3.288 8.292s-.728 4.428-2.724 6.424c-2 2-4.336 2.92-7.008 2.76-2.676-.16-5.232-1.348-7.676-3.564l-2.468 2.468-2.184-2.204zm19.704-24.536c-1.096-.068-2.028.28-2.792 1.044-.764.764-1.144 1.6-1.132 2.5.012.904.452 2.2 1.32 3.892l5.928-5.928c-1.116-.936-2.224-1.44-3.324-1.508zM407.148 215c1.164.116 2.148-.228 2.948-1.028s1.18-1.684 1.148-2.656c-.032-.972-.532-2.348-1.492-4.128l-6.168 6.168c1.212.98 2.4 1.528 3.564 1.644z"/></g><circle cx="386.04" cy="112.12" r="38.772" fill="#f5ea07"/><g fill="#e8bb20"><path d="M409.544 135.624c-12.952 12.952-34.032 12.952-46.984 0s-12.952-34.032 0-46.984 34.032-12.952 46.984 0c12.952 12.956 12.952 34.032 0 46.984zM366.7 92.784c-10.668 10.668-10.668 28.028 0 38.7 10.668 10.668 28.028 10.668 38.7 0 10.668-10.668 10.668-28.028 0-38.7-10.668-10.672-28.028-10.672-38.7 0z"/><path d="M399.504 127.092l-2.5-2.5c-3.452 2.812-7.504 4.376-12.164 4.696l-.48-5.484c3.588-.252 6.556-1.236 8.912-2.948l-6.648-6.648c-3.2 1.968-5.9 3.044-8.104 3.24-2.204.192-4.296-.696-6.272-2.672s-2.9-4.284-2.776-6.924c.124-2.64 1.24-5.124 3.344-7.452l-1.712-1.712 2.192-2.192 1.748 1.748c2.696-2.328 5.928-3.848 9.7-4.556l.924 5.38c-2.58.432-4.876 1.404-6.888 2.912l6.444 6.444.104-.104c3.244-2.008 6.008-3.104 8.292-3.288s4.428.728 6.424 2.724c2 2 2.92 4.336 2.76 7.008-.16 2.676-1.348 5.232-3.564 7.676l2.468 2.468-2.204 2.184zm-24.54-19.704c-.068 1.096.28 2.028 1.044 2.792s1.6 1.144 2.5 1.132c.904-.012 2.2-.452 3.892-1.32l-5.928-5.928c-.936 1.116-1.436 2.224-1.508 3.324zm22.244 7.812c.116-1.164-.228-2.148-1.028-2.948-.8-.8-1.684-1.18-2.656-1.148s-2.348.532-4.128 1.492l6.168 6.168c.98-1.212 1.528-2.4 1.644-3.564z"/></g><path d="M53.404 269.784h149.06c4.52 0 8.184 3.576 8.184 7.988v93.512c0 4.412-3.664 7.988-8.184 7.988H53.404c-4.52 0-8.184-3.576-8.184-7.988v-93.512c0-4.412 3.664-7.988 8.184-7.988z" fill="#7ec359"/><g fill="#6bbe49"><path d="M147.212 301.272c.38.36.912.356 1.108.868.116.304-.072.72.008 1.036 1.152 4.552 6.376 1.856 3.628-3.22-.324-.6-.812-1.252-.784-1.964.032-.812.752-1.348.908-2.1.184-.876-.428-1.788-.2-2.628.3-1.108.884-.62 1.636-.9.444-.164.932-.88 1.044-1.308.252-.944-.352-1.312-1.12-1.46-.728-.14-1.292-.524-1.92-.92-.452-.288-.436-.592-.74-.92-.344-.368-.76-.46-1.196-.624-.704-.264-1.428-.588-2.192-.592-.696-.008-1.716 1.072-2.276.756-.756-.428-.36-1.88-1.616-2.012-.232-.024-3.032.224-3.356.496-.632.528-.088 1.756-.62 2.136-.372.264-1.96 0-2.448.016-.308.788.208 1.76.58 2.424.38.672 1.276 1.036 1.496 1.544.244.564.104 1.352.204 1.96.092.564.712 2.06 1.128 2.4.32.264.644.064.928.496.26.404.112.768.172 1.208.32 2.332 4.18 1.704 5.628 3.308z"/><path d="M160.776 364.812c1.572 0 1.768.192 2.616-.9.7-.904.36-1.22.636-2.34.264-1.084.88-1.608.676-2.948-.132-.864-.364-1.28-.28-2.208.172-1.86.708-3.512.572-5.444-.108-1.484-1.624-3.712-.784-5.268.92-1.704 4.056-2.228 5.212-3.8.652-.884.844-3.448.64-4.608-.184-1.048-1.316-1.904-1.38-2.888-.08-1.232.784-1.12 1.656-1.736.84-.592 1.332-1.448 2.26-1.928.992-.512 2.184-.368 3.248-.712 1.104-.36 2.504-1.32 3.388-2.08 1.128-.968 1-1.808 1.368-3.184.392-1.48 1.692-4.156 2.652-5.304.052 1.104-.012 2.064-.252 3.108-.188.808-.996 2.324-.772 2.984 1.48-.712 1.356-2.504 1.828-3.836.628-1.776 3.088-4.592 3.02-6.564-.044-1.252-1.228-1.836-1.696-2.896-.212-.484-.484-1.596-.42-2.116.132-1.076.468-.772.964-1.6.644-1.076.632-2.28.588-3.524-.096-2.764.384-4.808 3.348-5.9 1.492-.552 3.128.088 4.392 1.192 1.628 1.424 1.252 2.216 4.54 2.252-.268-1.452-3.436-1.164-3.084-3.076 2 .1 2.624-3.16 1.428-4.272-.78-.728-2.144-.472-2.332-1.648-.088-.54.636-1.26.548-2.1-.7-.136-2.472.156-2.912-.516-.688-1.056.92-1.832-.776-2.468-.756-.284-2.176-.34-3-.432a12.707 12.707 0 0 0-2.616 0c-1.516.164-2.128.768-3.048 1.824-.536.616-1.04 1.8-1.692 2.312-1.336 1.048-3.676-.204-5.136.644-1.048.612-.884 1.776-1.68 2.556-.692.676-1.64.432-2.592.692 2.432-.024 2.308-1 2.228-2.668-.092-1.896.596-1.62 2.404-1.72-.388-.904-1.272-.48-1.948-.924-.368-.244-.78-1.564-.876-1.604-.38-.16-1.892.884-2.276 1.276-.448.452-.532 1.6-.936 1.836-.572.332-1.476-.504-1.864-.272-.912.54-.128 1.112-.06 1.612.144 1.012.344 1.076.72 1.76.328.596.992.392.472 1.528-1.324.024-1.352.132-1.956-.752-.428-.628.396-1.572-1.104-1.336-.012.528-.008 1.056-.16 1.5-.872-.952.072-1.852-.244-2.88.704 1.132 1.816.364 1.204-.704-.76-1.324-5.22.512-3.696-1.456.628-.812 2.112.388 2.188-1.06 1.508.552 2.812-.16 4.556-.048.192-.564-.052-1.184-.164-1.664.66.004 1.3-.28 1.772-.7-.356.032-.664-.136-.98-.156 0-.088-.004-.176-.008-.264-.584-.248-1.452-.52-2.1-.204-.888.428-.744 1.408-1.376 2.008-.132-1.024-.056-3.104-1.576-2.808-1.648.32-.16 1.968-.296 3.064-.728.436-1.3.164-2.088.24-.8.076-1.16.408-1.964.508.16 1.38-.488 1.708-1.82 1.684.792-.148 1.5-.684 1.196-1.544-.684.136-1.22-.248-1.056-.908-.324-.024-.656-.28-.944-.328.488-.608 1.228-.352 1.5-1.06.276-.72-.36-1.48-.816-1.948-1.088-1.108-2.216-1.036-3.62-1.26-1.336-.212-2.584-.576-3.984-.564-1.536.016-1.964.904-3.408 1.264.48.42.984.96 1.52 1.248.372.2.82.216 1.164.42.284.168.424.528.676.704.512.36 1.192.404 1.796.404.988.004 1.576.108 2.484.412-.22.468-1.636.156-.924 1.132.212.288 1.008.668 1.348.892 2.22 1.46.66.296 1.948 2.22.18.272.584.388-.156 1.4-.316.432-.988.704-1.324 1.128-.304.384-.508 1.632-.62 2.112-.112.476-.312.56-.54.956-.18.308-.492 1.688-.088 2.056.388.348 1.696.072 1.82-.424.928.628-.464.908-.644 1.196-.424.676.704 1.404 1.212 1.504 1.192.224 1.824.168 2.08-2.552.392.084.836.088 1.22.036a.996.996 0 0 0-.004-.448c-1.432-.38-1.992-.42-1.992-.42-.092-.068-.54-1-.568-1.188-.224-1.48 1.6.7 1.892-.384.152-.572-1.464-1.976.404-1.5 1.108.284 1.272 1.216 1.252 2.22.656.044 1.976-.02 2.324.564-.28.192-1.232.38-1.412.656-.52.808 1.168 1.756 1.908 1.424.768-.348.204-1.24 1.404-1.104 1.404.16 3.716 2.956 2.816 5.28-.692 1.788-2.412 1.008-3.012 2.308-.444.96-.32 2.924-1.968 2.5-1.228-.32-.172-2.552-.544-3.42-.112-.26-.372-.224-.484-.492-.1-.248.008-.792.008-1.052-.036-3.192-2.864-3.424-3.48-1.86-.164.412.16 1.208-.064 1.604-.248.44-.824.252-1.38.288-.112-.352-.504-.856-.872-.92-.944-.164-.604 1-.664 1.576-.1.948-.176 1.252-.9 1.688-.388.236-1.104.556-1.244 1.004-.192.604.376.78.56 1.276.58 1.564-1.824 1.172-1.144 2.952.3.784 2.312.908 2.8.26.412-.548-.044-1.644.7-2.096.684-.416 2.34.012 3.02.272-.428.644-1.72.952-1.932 1.68-.204.692.484 1.624 1.088 1.82 1.248.396 2.256-1.38 3.02-.208.9 1.388-.428.1.928 1.932.432.584.768 1.28 1.3 1.756.516.46 1.016.824 1.328 1.448.28.564.308 1.3.66 1.828.196.292.66.548.896.904.82 1.228-.3.792.144 2.348 1.484.292 1.16-2.932 3.044-3.276.912-.168 2.064.032 2.964.076.656.036 1.464.032 1.736.752.292.764-.24 1.64.06 2.46.248.672.648.96-.032 1.528-.836.7-3.648 1.408-3.444-.288-1.592-.688-.404 1.652-.408 1.96-.016.912-1.928 1.092-2.232 1.928-.352.968.112 1.636-1.132 2.048-1.292.428-1.852.116-2.76-.864-1.636-.44-3.308-.42-4.824.316-.248.12-.56.324-.888.384-.244.044-.488-.076-.72.06-.236.136-.084.308-.284.464-.428.324-1.976.616-1.484 1.5-.904.88-1.736-.132-2.112 1.336-.112.432-.264.82-.164 1.328.084.412.324.744.26 1.204-1.1.352-2.352.196-3.492.308-.456.044-1.164-.048-1.576.188-.52.296-.472.748-.56 1.336-.228 1.52-.152 3.1.308 4.54.348 1.088 1.144 1.936 1.496 3.02.408.032.932.62 1.324.856.468.284.664.156 1.104.32.596.228.572.824.628 1.396.08.792.224 1.368.708 2.028.584.796 1.556 1.132 2.128 1.964 1.072 1.556 2.608 2.836 3.068 4.64.172.676.024.948-.104 1.524-.176.796.424 1.244.52 2.056.064.532.072 1.288-.064 1.788-.196.744-.108.852-.876 1.064zm-49.072-32.588c-.172-.044-.468-.004-.644.016-.692 2.188 1.712 3.044 3.26 4.308.436.356 1.28.768 1.592 1.2.648.9-.376 2.072-.508 3.028-.168 1.216-.036 2.096.688 3.14.532.768 1.472 1.068 1.888 1.884.24.468.056.892.216 1.324.26.692.848 1.184 1.196 1.84.336.636.512 1.364.808 1.992 1.12 2.364 3.852 2.088 5.7.736 1.008-.736 1.452-2.396 2.016-3.552.908-1.86.368-5.02.188-7.024-.132-1.452.484-1.96.908-3.188.46-1.332-.356-2.296 1.432-2.696.284-.064.964-.024 1.188-.2.472-.368.212-1.052.852-1.392.936-.496 2.652.42 3.616.484 5.676.392 7.38-13.044-2.816-15.144-1.664-.344-3.516.22-5.164.352-.108 2.196.704 2.396-1.592 2.396-1.136 0-2.176-.204-3.288-.2-1.124.004-3.052.332-4.048-.18-2.82-1.448 3.376-2.496 4.244-2.612.796-.104 1.72.28 2.184-.608.308-.588-.132-.936.488-1.428 1.108-.884 5.28-1.408 6.348-.54.768.624.948 1.468 1.936 2.004 1.276.692 3.14 1.412 3.896-.208 1.048-2.248-1.196-2.952-2.896-3.444-.52-.152-1.488-.316-1.404-1.14.036-.336.348-.368.44-.584.084-.2.32-1.088.444-1.224.496-.544 1.636.2 2.208-.216 1.844-1.336-2.176-8.16-2.928-4.232-.216 1.128.052 1.704-2.044 1.916-2.876.292-.62-1.916-.496-3.216.108-1.144-.488-1.62-1.16-2.476-2.016-2.572-1.044-3.464-4.524-5.064-5.196-2.388-4.368 1.248-8.444 1.256-1.356.004-2.02-.24-3.216-1.012-.58-.376-1.184-1.016-1.848-1.188-.704-.184-1.392.32-1.8-.344-.416-.676.392-1.704.3-2.412-.408-.084-1.092-.396-1.504-.292-.468.12-.356.54-.744.72-1.048.48-3.888-1.032-4.48-3.956-.52-2.584-2.932-3.68-3.8-3.116-.836.544-.464 1.076-1.628 1.296-.948.18-1.444-.2-1.532.836-.08.916.732 1.596 1.084 2.356-.708.076-1-.452-1.5-.788-1.46-.972-4.028.164-4.328-1.764-1.7-.4-1.94 1.292-3.204 1.752-.904.328-2.956-.456-2.864-1.488.064-.724.128-1.192.248-1.908-1.736-.748-2.924.152-4.448.516-.556.132-1.144.112-1.716.188-1.864.252-1.068-1.556-3.264-1.092-1.12.236-.368.704-1.2 1.272-.536.368-1.672-.124-2.1-.336-.844-.42-.876-.648-.796-1.744-3.424-.932-11.548.392-9.2 3.332.676.844 1.044.368 1.976.66 2.092.66 1.02 2.372-.788 2.332-.36.964.224 1.644.884 2.364.784.856 1.508.8 2.456 1.316.66.36 1.488 1.356 1.152 2.312-.264.744-1.156.76-1.4 1.792-.312 1.32-.908 5.34.524 5.704 3.536.904.908-7.732 3.552-9.116 1.812-.948 2 1.688 1.552 2.7.636.296 1.376.14 2.072.212.7.072 4.032 1.804 4.156 2.368.22 1.008-1.304.916-1.936 1.204-2.112.968-1.864 1.688-2.036 5.688-.18.036-.492.088-.688.04-.384 1.084-.036 2.812.992 3.428.912.548 1.648.868 1.86 2.032.196 1.084-.72 1.332-1.148 2.176-.576 1.128.196 2.56 1.504 1.428.596-.516.308-1.424.852-1.9.3-.264.988-.544 1.372-.8 1.724-1.16 2.68 1.488 1.004 3.156-.432.428-1.14.864-1.316 1.496-.524 1.884.88 5.072 3.452 5.596 2.172.444 2.924 1.644 1.72 4.596-.24.588-.94.988-.116 1.44 1.212.664 3.444-.872 3.78-1.832.048-.14-.14-.332-.072-.496.072-.176.356-.184.456-.336 1.528-2.364 1.1-.548 2.952-3.212.436-.628.676-.664 1.412-.208 2.644 1.64 4.768 3.064 3.42 5.868-.128.264-.684.64-.728.912-.128.816 1.328.696 1.888.492.856-.312 1.188-1.052 1.46-1.852.256-.756.772-1.32.988-2.052.212-.728 0-1.3.5-1.964.64-.856 1.288-1.576 2.264-1.992.656-.28 1.324-.808 1.96-.948 1.652-.36 3.392.644 4.632-.716.548-.6 1.044-1.08 1.752-1.364-.004.508-.828 2.088-1.228 2.508-.712.744-1.696.492-2.64.544-.628.036-.728-.164-.988.448-.74 1.736 3.168 2.908 4.944 3.74 1.7.796 1.976.34 2.448-1.456.484-1.848 2.492-4.372 4.384-4.98.844 3.364-3.092 5.256-5.336 7.768-.652.708-1.232.384-2.14.768zm-32.552 21.044c.884.432 1.844.74 2.824.94 1.032.212 1.864.448 2.436-.508.596-.992 1.124-2.036.356-2.932-.28-.328-.468-.312-.648-.756-.192-.476-.276-1.148-.324-1.664-.128-1.32-.948-1.844-2.088-2.312-1.004-.416-2.024-.836-2.924-1.6-.804-.688-1.228-1.46-2.24-1.796-.592-.196-1.108-.336-1.772-.32-.692.012-1.092.028-1.628.508-.504.452-.536 1.4-1.076 1.696-1.156.632-1.904-1.428-1.984-2.192-1.356-.196-1.788 1.18-2.196 2.164-.484 1.16-1.392 2.244-1.544 3.492-.1.844-.008 1.66-.172 2.496-.2 1.008-.056 1.444.3 2.4.264.712.24 1.736.688 2.36.208.288.632.432.88.72.336.392.388.804.816 1.128 1.14.864 2.352.572 3.512-.012 1.348-.68 1.936-.928 2.412-2.512.64-2.152 2.912-2.116 4.372-1.3z"/></g><path d="M167.816 313.72a4.488 4.488 0 0 0 4.428 3.696h17.992a4.492 4.492 0 0 0 4.428-3.696c.052-.248.072-.516.072-.784v-18.012c0-.32-.036-.644-.108-.964a4.487 4.487 0 0 0-4.392-3.536c-18.008 0-21.412-1.036-22.384 3.536-.14.624-.176 19.104-.036 19.76z" fill="#f5ea07"/><path d="M167.744 295.28h7.64c-.768 2.64-1.196 3.964-1.268 7.908h-6.372v1.32h6.372c.088 2.624.768 5.264 1.908 7.908h-8.284c0 .44-.02.884.072 1.304h26.848c.052-.248.072-.516.072-.784v-.516h-8.816c1.144-2.64 1.82-5.284 1.912-7.908h6.908v-1.32h-6.908c-.072-3.944-.5-5.264-1.268-7.908h8.176v-.356c0-.32-.036-.644-.108-.964h-26.776c-.116.516-.108.812-.108 1.316zm7.692 7.82c0-2.696.5-5.176 1.376-7.82h8.3c.892 2.64 1.392 5.124 1.392 7.82 0 3.464-.784 6.676-2.14 9.316h-6.784c-1.356-2.64-2.144-5.852-2.144-9.316z" fill="#e8bb20"/><circle cx="74.26" cy="306.6" r="12.384" fill="#fdfeff"/><path d="M89.844 318.976c6.84 0 12.384-5.544 12.384-12.384s-5.544-12.384-12.384-12.384c-16.36 0-16.38 24.768 0 24.768z" fill="#656d7a"/><path d="M193.048 347.052c.64.812.964 2.144.964 3.992 0 1.884-.292 3.192-.876 3.924-.584.736-1.352 1.1-2.308 1.1-.952 0-1.692-.332-2.224-1.004-.644-.812-.964-2.148-.964-4.004 0-1.86.32-3.192.956-3.996.536-.68 1.28-1.016 2.228-1.016s1.692.332 2.224 1.004zm-2.828.772c-.176.144-.324.432-.44.864s-.176 1.224-.176 2.372c0 1.152.064 1.968.196 2.448.1.376.236.636.416.78a.95.95 0 0 0 .608.216.943.943 0 0 0 .608-.216c.176-.144.324-.428.436-.86.116-.432.176-1.22.176-2.372s-.064-1.972-.196-2.456c-.1-.376-.236-.636-.416-.78a.943.943 0 0 0-.608-.216.959.959 0 0 0-.604.22zm-4.796-.772c.64.812.964 2.144.964 3.992 0 1.884-.292 3.192-.876 3.924-.584.736-1.352 1.1-2.308 1.1-.952 0-1.692-.332-2.224-1.004-.64-.812-.964-2.148-.964-4.004 0-1.86.32-3.192.956-3.996.536-.68 1.28-1.016 2.228-1.016.952 0 1.692.332 2.224 1.004zm-2.828.772c-.176.144-.324.432-.44.864s-.176 1.224-.176 2.372c0 1.152.064 1.968.192 2.448.1.376.236.636.416.78a.95.95 0 0 0 .608.216.943.943 0 0 0 .608-.216c.176-.144.324-.428.44-.86.116-.432.176-1.22.176-2.372s-.064-1.972-.192-2.456c-.1-.376-.236-.636-.416-.78a.961.961 0 0 0-1.216.004zm-4.796-.772c.64.812.964 2.144.964 3.992 0 1.884-.292 3.192-.876 3.924-.584.736-1.352 1.1-2.308 1.1-.948 0-1.692-.332-2.224-1.004-.64-.812-.964-2.148-.964-4.004 0-1.86.32-3.192.956-3.996.536-.68 1.28-1.016 2.228-1.016.952 0 1.696.332 2.224 1.004zm-2.828.772c-.176.144-.324.432-.44.864s-.176 1.224-.176 2.372c0 1.152.064 1.968.196 2.448.1.376.236.636.416.78a.95.95 0 0 0 .608.216.943.943 0 0 0 .608-.216c.176-.144.324-.428.44-.86.116-.432.176-1.22.176-2.372s-.064-1.972-.196-2.456c-.1-.376-.236-.636-.416-.78a.961.961 0 0 0-1.216.004zm-4.796-.772c.64.812.964 2.144.964 3.992 0 1.884-.292 3.192-.876 3.924-.584.736-1.352 1.1-2.308 1.1-.952 0-1.692-.332-2.224-1.004-.64-.812-.964-2.148-.964-4.004 0-1.86.32-3.192.956-3.996.536-.68 1.28-1.016 2.228-1.016.952 0 1.696.332 2.224 1.004zm-2.824.772c-.176.144-.324.432-.44.864s-.176 1.224-.176 2.372c0 1.152.064 1.968.192 2.448.1.376.236.636.416.78a.95.95 0 0 0 .608.216.943.943 0 0 0 .608-.216c.176-.144.324-.428.436-.86.116-.432.176-1.22.176-2.372s-.064-1.972-.192-2.456c-.1-.376-.236-.636-.416-.78a.943.943 0 0 0-.608-.216.942.942 0 0 0-.604.22zm-8.608-.772c.64.812.964 2.144.964 3.992 0 1.884-.292 3.192-.876 3.924-.584.736-1.352 1.1-2.308 1.1-.952 0-1.692-.332-2.224-1.004-.64-.812-.964-2.148-.964-4.004 0-1.86.32-3.192.956-3.996 1.076-1.364 3.372-1.376 4.452-.012zm-2.828.772c-.176.144-.324.432-.44.864s-.176 1.224-.176 2.372c0 1.152.064 1.968.192 2.448.1.376.236.636.416.78a.95.95 0 0 0 .608.216.943.943 0 0 0 .608-.216c.176-.144.324-.428.44-.86.116-.432.176-1.22.176-2.372s-.064-1.972-.192-2.456c-.288-1.088-1.116-1.2-1.632-.776zm-4.796-.772c.64.812.964 2.144.964 3.992 0 1.884-.292 3.192-.876 3.924-.584.736-1.352 1.1-2.308 1.1-.952 0-1.692-.332-2.224-1.004-.64-.812-.964-2.148-.964-4.004 0-1.86.32-3.192.956-3.996.536-.68 1.28-1.016 2.228-1.016.952 0 1.696.332 2.224 1.004zm-2.824.772c-.176.144-.324.432-.44.864s-.176 1.224-.176 2.372c0 1.152.064 1.968.196 2.448.1.376.236.636.416.78a.95.95 0 0 0 .608.216.943.943 0 0 0 .608-.216c.176-.144.324-.428.436-.86.116-.432.176-1.22.176-2.372s-.064-1.972-.196-2.456c-.1-.376-.236-.636-.416-.78a.943.943 0 0 0-.608-.216.942.942 0 0 0-.604.22zm-4.796-.772c.64.812.964 2.144.964 3.992 0 1.884-.292 3.192-.876 3.924-.584.736-1.352 1.1-2.308 1.1-.952 0-1.692-.332-2.224-1.004-.64-.812-.964-2.148-.964-4.004 0-1.86.32-3.192.956-3.996.536-.68 1.28-1.016 2.228-1.016s1.692.332 2.224 1.004zm-2.828.772c-.176.144-.324.432-.44.864s-.176 1.224-.176 2.372c0 1.152.064 1.968.192 2.448.1.376.236.636.416.78a.95.95 0 0 0 .608.216.943.943 0 0 0 .608-.216c.176-.144.324-.428.436-.86.116-.432.176-1.22.176-2.372s-.064-1.972-.192-2.456c-.1-.376-.236-.636-.416-.78a.95.95 0 0 0-1.212.004zm-4.796-.772c.64.812.964 2.144.964 3.992 0 1.884-.292 3.192-.876 3.924-.584.736-1.352 1.1-2.308 1.1-.948 0-1.692-.332-2.224-1.004-.64-.812-.964-2.148-.964-4.004 0-1.86.32-3.192.956-3.996.536-.68 1.28-1.016 2.228-1.016.952 0 1.692.332 2.224 1.004zm-2.828.772c-.176.144-.324.432-.44.864s-.176 1.224-.176 2.372c0 1.152.064 1.968.196 2.448.1.376.236.636.416.78a.95.95 0 0 0 .608.216.943.943 0 0 0 .608-.216c.176-.144.324-.428.44-.86.116-.432.176-1.22.176-2.372s-.064-1.972-.196-2.456c-.1-.376-.236-.636-.416-.78a.953.953 0 0 0-1.216.004zm-8.604-.772c.64.812.964 2.144.964 3.992 0 1.884-.292 3.192-.876 3.924-.584.736-1.352 1.1-2.308 1.1-.952 0-1.692-.332-2.224-1.004-.64-.812-.964-2.148-.964-4.004 0-1.86.32-3.192.956-3.996.536-.68 1.28-1.016 2.228-1.016.952 0 1.692.332 2.224 1.004zm-2.828.772c-.176.144-.324.432-.44.864-.116.432-.176 1.224-.176 2.372 0 1.152.064 1.968.192 2.448.1.376.236.636.416.78s.384.216.608.216a.943.943 0 0 0 .608-.216c.176-.144.324-.428.436-.86.116-.432.176-1.22.176-2.372s-.064-1.972-.196-2.456c-.1-.376-.236-.636-.416-.78a.943.943 0 0 0-1.208.004zm-4.796-.772c.64.812.964 2.144.964 3.992 0 1.884-.292 3.192-.876 3.924-.584.736-1.352 1.1-2.308 1.1-.952 0-1.692-.332-2.224-1.004-.64-.812-.964-2.148-.964-4.004 0-1.86.32-3.192.956-3.996.536-.68 1.28-1.016 2.228-1.016.952 0 1.692.332 2.224 1.004zm-2.828.772c-.176.144-.324.432-.44.864-.116.432-.176 1.224-.176 2.372 0 1.152.064 1.968.192 2.448.1.376.236.636.416.78s.384.216.608.216a.943.943 0 0 0 .608-.216c.176-.144.324-.428.44-.86.116-.432.176-1.22.176-2.372s-.064-1.972-.192-2.456c-.1-.376-.236-.636-.416-.78s-.38-.216-.608-.216a.953.953 0 0 0-.608.22zm-4.796-.772c.64.812.964 2.144.964 3.992 0 1.884-.292 3.192-.876 3.924-.584.736-1.352 1.1-2.308 1.1-.948 0-1.692-.332-2.224-1.004-.64-.812-.964-2.148-.964-4.004 0-1.86.316-3.192.956-3.996.536-.68 1.28-1.016 2.228-1.016.952 0 1.692.332 2.224 1.004zm-2.828.772c-.176.144-.324.432-.44.864-.116.432-.176 1.224-.176 2.372 0 1.152.064 1.968.196 2.448.1.376.236.636.416.78s.384.216.608.216a.943.943 0 0 0 .608-.216c.176-.144.324-.428.436-.86.116-.432.176-1.22.176-2.372s-.064-1.972-.196-2.456c-.1-.376-.236-.636-.416-.78s-.38-.216-.608-.216a.959.959 0 0 0-.604.22zm-4.796-.772c.64.812.964 2.144.964 3.992 0 1.884-.292 3.192-.876 3.924-.584.736-1.352 1.1-2.308 1.1-.952 0-1.692-.332-2.224-1.004-.64-.812-.964-2.148-.964-4.004 0-1.86.32-3.192.956-3.996.536-.68 1.28-1.016 2.228-1.016.952 0 1.692.332 2.224 1.004zm-2.828.772c-.176.144-.324.432-.44.864-.116.432-.176 1.224-.176 2.372 0 1.152.064 1.968.192 2.448.1.376.236.636.416.78s.384.216.608.216a.943.943 0 0 0 .608-.216c.176-.144.324-.428.436-.86.116-.432.176-1.22.176-2.372s-.064-1.972-.192-2.456c-.1-.376-.236-.636-.416-.78s-.38-.216-.608-.216a.959.959 0 0 0-.604.22zm-8.604-.772c.64.812.964 2.144.964 3.992 0 1.884-.292 3.192-.876 3.924-.584.736-1.352 1.1-2.308 1.1-.952 0-1.692-.332-2.224-1.004-.64-.812-.964-2.148-.964-4.004 0-1.86.32-3.192.956-3.996.536-.68 1.28-1.016 2.228-1.016s1.692.332 2.224 1.004zm-2.828.772c-.176.144-.324.432-.44.864-.116.432-.176 1.224-.176 2.372 0 1.152.064 1.968.192 2.448.1.376.236.636.416.78s.384.216.608.216a.943.943 0 0 0 .608-.216c.176-.144.324-.428.44-.86.116-.432.176-1.22.176-2.372s-.064-1.972-.192-2.456c-.1-.376-.236-.636-.416-.78s-.38-.216-.608-.216a.961.961 0 0 0-.608.22zm-4.796-.772c.64.812.964 2.144.964 3.992 0 1.884-.292 3.192-.876 3.924-.584.736-1.352 1.1-2.308 1.1-.952 0-1.692-.332-2.224-1.004-.644-.812-.964-2.148-.964-4.004 0-1.86.32-3.192.956-3.996.536-.68 1.28-1.016 2.228-1.016.952 0 1.692.332 2.224 1.004zm-2.828.772c-.176.144-.324.432-.44.864-.116.432-.176 1.224-.176 2.372 0 1.152.064 1.968.196 2.448.1.376.236.636.416.78s.384.216.608.216a.943.943 0 0 0 .608-.216c.176-.144.324-.428.436-.86.116-.432.176-1.22.176-2.372s-.064-1.972-.196-2.456c-.1-.376-.236-.636-.416-.78s-.38-.216-.608-.216a.959.959 0 0 0-.604.22zm-4.796-.772c.64.812.964 2.144.964 3.992 0 1.884-.292 3.192-.876 3.924-.584.736-1.352 1.1-2.308 1.1-.952 0-1.692-.332-2.224-1.004-.64-.812-.964-2.148-.964-4.004 0-1.86.32-3.192.956-3.996.536-.68 1.28-1.016 2.228-1.016.952 0 1.696.332 2.224 1.004zm-2.828.772c-.176.144-.324.432-.44.864-.116.432-.176 1.224-.176 2.372 0 1.152.064 1.968.192 2.448.1.376.236.636.416.78s.384.216.608.216a.943.943 0 0 0 .608-.216c.176-.144.324-.428.44-.86.116-.432.176-1.22.176-2.372s-.064-1.972-.192-2.456c-.1-.376-.236-.636-.416-.78s-.38-.216-.608-.216a.961.961 0 0 0-.608.22zm-4.796-.772c.64.812.964 2.144.964 3.992 0 1.884-.292 3.192-.876 3.924-.584.736-1.352 1.1-2.308 1.1-.948 0-1.692-.332-2.224-1.004-.64-.812-.964-2.148-.964-4.004 0-1.86.32-3.192.956-3.996.536-.68 1.28-1.016 2.228-1.016.952 0 1.696.332 2.224 1.004zm-2.824.772c-.176.144-.324.432-.44.864-.116.432-.176 1.224-.176 2.372 0 1.152.064 1.968.196 2.448.1.376.236.636.416.78s.384.216.608.216a.943.943 0 0 0 .608-.216c.176-.144.324-.428.436-.86.116-.432.176-1.22.176-2.372s-.064-1.972-.196-2.456c-.1-.376-.236-.636-.416-.78s-.38-.216-.608-.216a.942.942 0 0 0-.604.22z" fill="#fff"/><path d="M336.236 378.696H232.608c-2.952 0-5.344 2.392-5.344 5.344s2.392 5.344 5.344 5.344h103.628c2.952 0 5.344-2.392 5.344-5.344s-2.392-5.344-5.344-5.344z" fill="#4d5ba5"/><path d="M284.344 60.696v158.012c0 7.568-6.148 13.716-13.716 13.716H192.9c-7.568 0-13.716-6.148-13.716-13.716V60.696l6.856 6.856 6.524-6.564 6.524 6.564 6.524-6.564 6.564 6.564 6.524-6.564 6.524 6.564 6.524-6.564 6.564 6.564 6.524-6.564 6.524 6.564 6.524-6.564 6.564 6.564 6.524-6.564 6.524 6.564 6.848-6.856z" fill="#e8e7e8"/><path d="M220.336 113.588c-7.58 0-13.72 6.144-13.72 13.72v91.384c0 7.576-6.128 13.72-13.72 13.72h114.46c7.58 0 13.72-6.144 13.72-13.72V113.588h-100.74z" fill="#d2d2d4"/><path d="M321.068 113.584H220.332c7.592 0 13.72 6.148 13.72 13.72V384.04h100.736V127.304c0-7.576-6.144-13.72-13.72-13.72z" fill="#fdfeff"/><path d="M244.12 143.256h80.6v6.052h-80.6zm0 14.548h80.6v6.052h-80.6zm0 14.556h53.132v6.052H244.12zm0 183.28h35.28v12.12h-35.28zm0-25.44h35.28v12.12h-35.28zm45.32 3.84h35.28v33.704h-35.28zm-45.32-134h80.6v6.052h-80.6zm0 14.68h80.6v6.052h-80.6zm0 14.68h80.6v6.052h-80.6zm0 14.68h80.6v6.052h-80.6zm0 14.72h57.592v6.052H244.12z" fill="#d2d2d4"/></svg>