<svg xmlns="http://www.w3.org/2000/svg" viewBox="0 0 512 512"><circle cx="256" cy="256" r="256" fill="#f1592f"/><path d="M465.912 333.468c0 18.844-28.296 34.12-63.204 34.12s-63.204-15.276-63.204-34.12v-13.5h126.412v13.5h-.004z" fill="#e8bb20"/><ellipse cx="402.72" cy="319.968" rx="63.204" ry="34.12" fill="#f5ea07"/><path d="M465.912 311.712c0 18.844-28.296 34.12-63.204 34.12s-63.204-15.276-63.204-34.12v-13.5h126.412v13.5h-.004z" fill="#e8bb20"/><ellipse cx="402.72" cy="298.2" rx="63.204" ry="34.12" fill="#f5ea07"/><path d="M465.912 289.96c0 18.844-28.296 34.12-63.204 34.12S339.5 308.8 339.5 289.96v-13.5h126.412v13.5z" fill="#e8bb20"/><ellipse cx="402.72" cy="276.44" rx="63.204" ry="34.12" fill="#f5ea07"/><path d="M465.912 268.204c0 18.844-28.296 34.12-63.204 34.12s-63.204-15.276-63.204-34.12v-13.5h126.412v13.5h-.004z" fill="#e8bb20"/><ellipse cx="402.72" cy="254.72" rx="63.204" ry="34.12" fill="#f5ea07"/><path d="M465.912 246.448c0 18.844-28.296 34.12-63.204 34.12s-63.204-15.276-63.204-34.12v-13.5h126.412v13.5h-.004z" fill="#e8bb20"/><ellipse cx="402.72" cy="232.96" rx="63.204" ry="34.12" fill="#f5ea07"/><path d="M465.912 224.692c0 18.844-28.296 34.12-63.204 34.12s-63.204-15.276-63.204-34.12v-13.5h126.412v13.5h-.004z" fill="#e8bb20"/><ellipse cx="402.72" cy="211.196" rx="63.204" ry="34.12" fill="#f5ea07"/><path d="M465.912 202.936c0 18.844-28.296 34.12-63.204 34.12s-63.204-15.276-63.204-34.12V189.44h126.412v13.496h-.004z" fill="#e8bb20"/><ellipse cx="402.72" cy="189.44" rx="63.204" ry="34.12" fill="#f5ea07"/><path d="M465.912 181.184c0 18.844-28.296 34.12-63.204 34.12s-63.204-15.276-63.204-34.12v-13.5h126.412v13.5h-.004z" fill="#e8bb20"/><ellipse cx="402.72" cy="167.684" rx="63.204" ry="34.12" fill="#f5ea07"/><g fill="#e8bb20"><path d="M402.704 194.696c-29.864 0-54.16-12.116-54.16-27.008s24.3-27.008 54.16-27.008c29.864 0 54.16 12.116 54.16 27.008 0 14.888-24.3 27.008-54.16 27.008zm0-49.26c-24.596 0-44.612 9.98-44.612 22.248s20.012 22.248 44.612 22.248c24.596 0 44.612-9.98 44.612-22.248-.004-12.268-20.016-22.248-44.612-22.248z"/><path d="M400.968 184.016v-2.876c-7.216-.368-13.696-1.8-19.44-4.292l5.768-3.428c4.428 1.916 8.984 3.06 13.672 3.428v-7.644c-5.956-.708-10.312-1.64-13.076-2.796-2.764-1.156-4.152-2.868-4.152-5.14s1.596-4.132 4.78-5.576c3.188-1.444 7.336-2.232 12.444-2.364v-1.972h5.056v2.008c5.792.212 11.272 1.196 16.436 2.956l-5.136 3.624c-3.476-1.236-7.244-1.996-11.296-2.288v7.408h.236c6.056.712 10.508 1.668 13.352 2.876 2.844 1.208 4.268 2.964 4.268 5.26 0 2.3-1.632 4.172-4.9 5.616-3.268 1.448-7.584 2.232-12.956 2.364v2.836h-5.056zm-5.572-25.432c-1.34.592-2.012 1.324-2.012 2.208 0 .88.524 1.576 1.58 2.088s3.056 1.004 6.004 1.48v-6.816c-2.368.1-4.228.448-5.572 1.04zm16.636 17.276c1.472-.604 2.212-1.364 2.212-2.284s-.58-1.648-1.74-2.188c-1.156-.54-3.316-1.044-6.48-1.516v7.092c2.528-.132 4.532-.5 6.008-1.104zm-92.828 157.608c0 18.844-28.3 34.12-63.204 34.12s-63.204-15.276-63.204-34.12v-13.5h126.412v13.5h-.004z"/></g><ellipse cx="256" cy="319.968" rx="63.204" ry="34.12" fill="#f5ea07"/><path d="M319.204 311.712c0 18.844-28.3 34.12-63.204 34.12s-63.204-15.276-63.204-34.12v-13.5h126.412v13.5h-.004z" fill="#e8bb20"/><ellipse cx="256" cy="298.2" rx="63.204" ry="34.12" fill="#f5ea07"/><path d="M319.204 289.96c0 18.844-28.3 34.12-63.204 34.12s-63.204-15.28-63.204-34.12v-13.5h126.412v13.5h-.004z" fill="#e8bb20"/><ellipse cx="256" cy="276.44" rx="63.204" ry="34.12" fill="#f5ea07"/><path d="M319.204 268.204c0 18.844-28.3 34.12-63.204 34.12s-63.204-15.276-63.204-34.12v-13.5h126.412v13.5h-.004z" fill="#e8bb20"/><ellipse cx="256" cy="254.72" rx="63.204" ry="34.12" fill="#f5ea07"/><path d="M319.204 246.448c0 18.844-28.3 34.12-63.204 34.12s-63.204-15.276-63.204-34.12v-13.5h126.412v13.5h-.004z" fill="#e8bb20"/><ellipse cx="256" cy="232.96" rx="63.204" ry="34.12" fill="#f5ea07"/><g fill="#e8bb20"><path d="M255.996 259.96c-29.864 0-54.16-12.116-54.16-27.008s24.3-27.008 54.16-27.008 54.16 12.116 54.16 27.008c.004 14.892-24.296 27.008-54.16 27.008zm0-49.256c-24.596 0-44.612 9.98-44.612 22.248s20.012 22.248 44.612 22.248 44.612-9.98 44.612-22.248-20.012-22.248-44.612-22.248z"/><path d="M254.264 249.28v-2.876c-7.216-.368-13.696-1.8-19.44-4.292l5.768-3.428c4.428 1.916 8.984 3.06 13.672 3.428v-7.644c-5.956-.708-10.312-1.64-13.076-2.796-2.764-1.156-4.152-2.868-4.152-5.14s1.596-4.132 4.78-5.576c3.188-1.444 7.336-2.232 12.444-2.364v-1.972h5.056v2.008c5.792.212 11.272 1.196 16.436 2.956l-5.136 3.624c-3.476-1.236-7.244-1.996-11.296-2.288v7.408h.236c6.056.712 10.508 1.668 13.352 2.876 2.844 1.208 4.268 2.964 4.268 5.26 0 2.3-1.632 4.172-4.9 5.616-3.268 1.448-7.584 2.232-12.956 2.364v2.836h-5.056zm-5.572-25.432c-1.34.592-2.012 1.324-2.012 2.208 0 .88.524 1.576 1.58 2.088s3.056 1.004 6.004 1.48v-6.816c-2.372.1-4.228.448-5.572 1.04zm16.632 17.276c1.472-.604 2.212-1.364 2.212-2.284s-.58-1.648-1.74-2.188c-1.156-.54-3.316-1.044-6.48-1.516v7.092c2.532-.128 4.532-.496 6.008-1.104zM172.5 333.468c0 18.844-28.296 34.12-63.204 34.12s-63.204-15.276-63.204-34.12v-13.5h126.412v13.5h-.004z"/></g><ellipse cx="109.296" cy="319.968" rx="63.204" ry="34.12" fill="#f5ea07"/><path d="M172.5 311.712c0 18.844-28.296 34.12-63.204 34.12s-63.204-15.276-63.204-34.12v-13.5h126.412v13.5h-.004z" fill="#e8bb20"/><ellipse cx="109.296" cy="298.2" rx="63.204" ry="34.12" fill="#f5ea07"/><path d="M172.5 289.96c0 18.844-28.296 34.12-63.204 34.12s-63.208-15.28-63.208-34.12v-13.5H172.5v13.5z" fill="#e8bb20"/><ellipse cx="109.296" cy="276.44" rx="63.204" ry="34.12" fill="#f5ea07"/><g fill="#e8bb20"><path d="M109.292 303.468c-29.864 0-54.16-12.116-54.16-27.008s24.3-27.008 54.16-27.008 54.16 12.116 54.16 27.008-24.296 27.008-54.16 27.008zm0-49.256c-24.596 0-44.612 9.98-44.612 22.248s20.012 22.248 44.612 22.248 44.612-9.98 44.612-22.248-20.012-22.248-44.612-22.248z"/><path d="M107.556 292.792v-2.876c-7.216-.368-13.696-1.8-19.44-4.292l5.768-3.428c4.428 1.916 8.984 3.06 13.672 3.428v-7.644c-5.956-.708-10.312-1.64-13.076-2.796s-4.152-2.868-4.152-5.14 1.596-4.132 4.78-5.576c3.188-1.444 7.336-2.232 12.444-2.364v-1.972h5.056v2.008c5.792.212 11.272 1.196 16.436 2.956l-5.136 3.624c-3.476-1.236-7.244-1.996-11.296-2.288v7.408h.236c6.056.712 10.508 1.668 13.352 2.876 2.844 1.208 4.268 2.964 4.268 5.26 0 2.3-1.632 4.172-4.9 5.616-3.268 1.448-7.584 2.232-12.956 2.364v2.836h-5.056zm-5.572-25.432c-1.34.592-2.012 1.324-2.012 2.208s.524 1.576 1.58 2.088 3.056 1.004 6.004 1.48v-6.816c-2.368.1-4.228.448-5.572 1.04zm16.636 17.276c1.472-.604 2.212-1.364 2.212-2.284 0-.92-.58-1.648-1.74-2.188-1.156-.54-3.316-1.044-6.48-1.516v7.092c2.528-.132 4.532-.5 6.008-1.104z"/></g></svg>