<svg xmlns="http://www.w3.org/2000/svg" viewBox="0 0 512 512"><circle cx="256" cy="256" r="256" fill="#f5ea07"/><path fill="#656d7a" d="M45.788 150.372h420.44v294.24H45.788z"/><path fill="#fdfeff" d="M69.788 174.376h372.44v246.24H69.788z"/><path fill="#4d535f" d="M45.788 67.384h420.44v82.988H45.788z"/><circle cx="90.888" cy="108.88" r="17.996" fill="#f1592f"/><circle cx="141.52" cy="108.88" r="17.996" fill="#f5ea07"/><circle cx="192.2" cy="108.88" r="17.996" fill="#70b1e1"/><path d="M351.908 218.308v86.696S347.352 375.24 256 400.968c-91.408-25.728-95.908-95.964-95.908-95.964v-86.696c36.896 3.224 68.568-8.056 95.908-31.504 27.284 23.448 58.956 34.728 95.908 31.504z" fill="#656d7a"/><path d="M340.32 297.9v-67.464h-.648c-30.524 0-58.624-9.66-83.672-28.728V297.9h84.32z" fill="#fdfeff"/><path d="M256 201.708l-.008-.004c-25.092 19.072-53.196 28.732-83.684 28.732h-.628V297.9H256v-96.192z" fill="#f1592f"/><path d="M171.68 297.9v6.624c.508 5.336 7.64 61.356 84.32 84.376v-91h-84.32z" fill="#fdfeff"/><path d="M256 297.9v91c76.84-23.084 83.848-79.348 84.32-84.368V297.9H256z" fill="#f1592f"/></svg>