<svg width="210" height="210" xmlns="http://www.w3.org/2000/svg"><defs><linearGradient x1="522.728%" y1="-391.823%" x2="-86.662%" y2="177.497%" id="a"><stop stop-color="#FCEE21" offset="0%"/><stop stop-color="#FAD022" offset="20%"/><stop stop-color="#F15A24" offset="100%"/></linearGradient><linearGradient x1="400.837%" y1="-277.751%" x2="-213.599%" y2="296.33%" id="b"><stop stop-color="#FCEE21" offset="0%"/><stop stop-color="#F15A24" offset="100%"/></linearGradient><linearGradient x1="31918%" y1="5491.031%" x2="16518%" y2="18850.355%" id="c"><stop stop-color="#FCEE21" offset="0%"/><stop stop-color="#F15A24" offset="100%"/></linearGradient><linearGradient x1="34980.793%" y1="9329%" x2="19641.922%" y2="23663%" id="d"><stop stop-color="#FCEE21" offset="0%"/><stop stop-color="#F15A24" offset="100%"/></linearGradient><linearGradient x1="87.2%" y1="15.433%" x2="13.476%" y2="84.05%" id="e"><stop stop-color="#FCEE21" offset="0%"/><stop stop-color="#FABE2B" offset="23%"/><stop stop-color="#F99333" offset="46%"/><stop stop-color="#F87439" offset="67%"/><stop stop-color="#F7623D" offset="85%"/><stop stop-color="#F75B3E" offset="97%"/></linearGradient><linearGradient x1="29884.175%" y1="3801%" x2="14530.915%" y2="18134%" id="f"><stop stop-color="#FCEE21" offset="0%"/><stop stop-color="#F15A24" offset="100%"/></linearGradient><linearGradient x1="28211%" y1="1899.488%" x2="12811%" y2="16182.196%" id="g"><stop stop-color="#FCEE21" offset="0%"/><stop stop-color="#F15A24" offset="100%"/></linearGradient></defs><g fill="none"><path d="M62.63 128.45a3.5 3.5 0 0 0-2.84 4.06 5.58 5.58 0 0 1-.94 4.21 5.64 5.64 0 1 1-5.43-8.81 3.5 3.5 0 1 0-1-6.93A12.64 12.64 0 0 0 47 143.84a12.64 12.64 0 0 0 19.69-12.55 3.49 3.49 0 0 0-4.06-2.84z" fill="url(#a)"/><path d="M59.13 71.86a12.54 12.54 0 0 0 2.09-9.45 3.5 3.5 0 0 0-6.89 1.22A5.63 5.63 0 1 1 48 59a3.5 3.5 0 1 0-1-6.92 12.68 12.68 0 0 0-8.52 5.25c-3.81 5.714-2.36 13.424 3.265 17.365 5.625 3.94 13.367 2.668 17.435-2.865l-.05.03z" fill="url(#b)"/><path d="M101.39 118.34c-15.58.039-28.179 12.7-28.14 28.28.039 15.58 12.7 28.179 28.28 28.14h.14a28.08 28.08 0 0 0 23.89-13.41 3.52 3.52 0 0 0-6-3.68 21.1 21.1 0 0 1-18 10.09h-.11a21.21 21.21 0 0 1-15.07-36.14 21 21 0 0 1 15-6.28A21.25 21.25 0 0 1 121 138.13a3.503 3.503 0 0 0 6.43-2.78 28.18 28.18 0 0 0-26.04-17.01z" fill="url(#c)"/><path d="M138.26 178.85a12.5 12.5 0 0 0 9.23 2.83c6.947-.67 12.037-6.843 11.37-13.79a3.516 3.516 0 1 0-7 .67 5.64 5.64 0 1 1-6-5.08 3.508 3.508 0 0 0-.46-7 12.63 12.63 0 0 0-7.2 22.35l.06.02z" fill="url(#d)"/><path d="M195.41 51.71c-1.69-2.89-3.55-5.72-5.51-8.43A5.67 5.67 0 0 0 179.66 47 16.36 16.36 0 1 1 155 33.44a16.14 16.14 0 0 1 9.19-2.24A5.67 5.67 0 0 0 168 21C125.044-11.182 64.687-5.565 28.408 33.992-7.87 73.55-8.259 134.166 27.51 174.184c35.77 40.02 96.049 46.41 139.414 14.78 43.365-31.63 55.695-90.98 28.516-137.264l-.03.01zm-46 37.41a3.51 3.51 0 0 0 4.8 1.22c12.134-7.19 27.638-4.958 37.25 5.363 9.612 10.322 10.736 25.946 2.7 37.537-8.386 11.954-24.16 16.134-37.366 9.9-13.204-6.233-20.003-21.068-16.104-35.14a3.5 3.5 0 0 0-6.74-1.89c-4.465 15.974 2.246 32.967 16.42 41.58 14.175 8.613 32.349 6.742 44.47-4.58-17.492 40.559-60.109 64.247-103.789 57.69-43.68-6.556-77.464-41.713-82.277-85.62C3.96 71.273 29.327 29.633 70.55 13.77a36.22 36.22 0 0 0 32 60.35 3.5 3.5 0 0 0-1-6.93c-13.844 2.065-27.207-5.984-31.853-19.187-4.646-13.204.73-27.848 12.817-34.907 12.087-7.06 27.483-4.55 36.701 5.984 9.218 10.533 9.665 26.126 1.065 37.17a3.5 3.5 0 1 0 5.52 4.3 36.21 36.21 0 0 0-8.86-52.63 97.16 97.16 0 0 1 43.7 16.41c-12.1 1.374-21.119 11.806-20.73 23.977.39 12.172 10.055 22.006 22.218 22.605 12.163.6 22.749-8.238 24.332-20.312a100.495 100.495 0 0 1 2.92 4.66 96.74 96.74 0 0 1 13.34 44.49 36.6 36.6 0 0 0-12-14 37.07 37.07 0 0 0-40-1.44 3.51 3.51 0 0 0-1.28 4.81h-.03z" fill="url(#e)"/><path d="M127.56 86.84a3.5 3.5 0 0 0-3.05 3.9 5.64 5.64 0 0 1-9.07 5.12 5.64 5.64 0 0 1 3-10.06 3.515 3.515 0 0 0-.65-7 12.64 12.64 0 0 0-6.62 22.54 12.64 12.64 0 0 0 20.33-11.49 3.49 3.49 0 0 0-3.94-3.01z" fill="url(#f)"/><path d="M61 110a18.81 18.81 0 0 0 13.21 6h.64a19 19 0 0 0 18.48-14.82 19.55 19.55 0 0 0 .42-5.29 3.506 3.506 0 0 0-7 .42 11.78 11.78 0 0 1-.27 3.35A11.95 11.95 0 1 1 73 85.25a12.08 12.08 0 0 1 3.7 0 3.5 3.5 0 0 0 1.06-6.92A19 19 0 0 0 61 110z" fill="url(#g)"/></g></svg>