<svg xmlns="http://www.w3.org/2000/svg" viewBox="0 0 512 512"><circle cx="256" cy="256" r="256" fill="#ee4b68"/><path fill="#5f87c4" d="M453.532 238.452L256.016 477.62 58.468 238.452z"/><path d="M338.924 238.452L256.008 477.62l-82.932-239.168zM147.656 130.46L58.468 238.452h395.064L364.328 130.46z" fill="#70b1e1"/><path fill="#5f87c4" d="M210.516 130.46l-37.44 107.992h165.848L301.476 130.46z"/><path d="M192.33 43.33l25.478 52.1-14.757 7.216-25.478-52.1zm75.958-5.712l.063 52.12-16.428.02-.063-52.12zm74.243 12.78l-25.364 52.162-14.774-7.184 25.365-52.162zm-215.843 59.474c12.536 12.536 32.856 12.536 45.392 0-12.536 12.536-12.536 32.856 0 45.392-12.536-12.536-32.856-12.536-45.392 0 12.532-12.536 12.532-32.86 0-45.392zm52.016 19.464c8.388 8.388 21.984 8.388 30.372 0-8.388 8.388-8.388 21.984 0 30.372-8.388-8.388-21.984-8.388-30.372 0 8.384-8.388 8.384-21.988 0-30.372zm-48.232 32.604c8.388 8.388 21.984 8.388 30.372 0-8.388 8.388-8.388 21.984 0 30.372-8.388-8.388-21.984-8.388-30.372 0 8.388-8.388 8.388-21.988 0-30.372z" fill="#fdfeff"/></svg>