<svg xmlns="http://www.w3.org/2000/svg" viewBox="0 0 512 512"><circle cx="256" cy="256" r="256" fill="#4d5ba5"/><path fill="#d2d2d4" d="M50.604 130.764h410.8v313.84h-410.8z"/><path fill="#fdfeff" d="M74.056 156.36h363.88V419H74.056z"/><path fill="#656d7a" d="M50.604 67.38h410.8v63.384h-410.8z"/><path fill="#fdfeff" d="M227.608 86.3h208.12v25.548h-208.12z"/><circle cx="86.236" cy="99.072" r="15.276" fill="#7ec359"/><circle cx="129.24" cy="99.072" r="15.276" fill="#f5ea07"/><circle cx="172.24" cy="99.072" r="15.276" fill="#70b1e1"/><circle cx="256" cy="287.692" r="60.98" fill="#fdfeff"/><path d="M355.092 300.9v-26.416l-15.728-1.732c-.856-4.752-2.08-9.352-3.7-13.8l12.748-9.376-13.208-22.868-14.5 6.372c-3.068-3.636-6.44-7.032-10.096-10.076l6.372-14.524-22.868-13.208-9.376 12.768c-4.424-1.62-9.048-2.848-13.8-3.7l-1.732-15.748h-26.416l-1.732 15.748c-4.752.856-9.376 2.08-13.8 3.7l-9.376-12.768-22.868 13.208 6.372 14.524c-3.656 3.044-7.032 6.44-10.096 10.076l-14.5-6.372-13.208 22.868 12.748 9.376a83.078 83.078 0 0 0-3.7 13.8l-15.728 1.732V300.9l15.728 1.728c.856 4.752 2.08 9.376 3.7 13.8l-12.748 9.376 13.208 22.868 14.5-6.352a86.087 86.087 0 0 0 10.096 10.076l-6.372 14.5 22.868 13.208 9.376-12.748c4.424 1.62 9.048 2.848 13.8 3.7l1.732 15.728h26.416l1.732-15.728c4.752-.852 9.376-2.08 13.8-3.7l9.376 12.748 22.868-13.208-6.352-14.5a84.41 84.41 0 0 0 10.076-10.076l14.5 6.352 13.208-22.868-12.748-9.376c1.62-4.424 2.848-9.044 3.7-13.8l15.728-1.728zM256 348.672c-33.688 0-60.98-27.292-60.98-60.98s27.292-60.98 60.98-60.98 60.98 27.292 60.98 60.98-27.292 60.98-60.98 60.98z" fill="#f1592f"/><path d="M252.356 312.296V290.48c-6.804-1.944-11.784-4.888-14.98-8.828-3.16-3.94-4.756-8.724-4.756-14.344 0-5.692 1.804-10.476 5.38-14.344 3.612-3.872 8.384-6.1 14.356-6.692v-5.156h7.552v5.156c5.52.66 9.912 2.544 13.176 5.648 3.264 3.108 5.348 7.264 6.248 12.472l-13.176 1.72c-.8-4.096-2.88-6.872-6.248-8.332v20.36c8.332 2.256 14.008 5.18 17.028 8.776s4.532 8.2 4.532 13.824c0 6.284-1.908 11.576-5.692 15.88-3.82 4.304-9.096 6.944-15.864 7.916v9.736h-7.552v-9.476c-6.004-.728-10.884-2.968-14.632-6.716s-6.144-9.044-7.184-15.88l13.592-1.46c.556 2.776 1.596 5.172 3.124 7.184 1.52 2.012 3.22 3.468 5.096 4.372zm0-54.676c-2.048.696-3.68 1.876-4.896 3.54s-1.824 3.508-1.824 5.52c0 1.84.556 3.548 1.668 5.128s2.796 2.856 5.052 3.828V257.62zm7.548 55.404c2.604-.484 4.72-1.692 6.352-3.62s2.448-4.192 2.448-6.796c0-2.324-.696-4.332-2.064-6.016s-3.612-2.976-6.736-3.88v20.312z" fill="#e8bb20"/></svg>