<svg xmlns="http://www.w3.org/2000/svg" viewBox="0 0 512 512"><circle cx="256" cy="256" r="256" fill="#7ec359"/><circle cx="256" cy="256" r="210" fill="#f1592f"/><circle cx="256" cy="256" r="187.512" fill="#fdfeff"/><path d="M256 90.824c-91.088 0-165.176 74.092-165.176 165.176h2.156c13.4-75.576 85.896-127.472 163.02-113.8V90.824z" fill="#70b1e1"/><path d="M372.748 139.252c-48.828 48.828-23.236 23.236-42 42.004 19.936 19.94 33.936 45.824 39.064 74.744h51.364c.004-45.544-18.52-86.84-48.428-116.748z" fill="#f1592f"/><path d="M372.748 139.252C342.84 109.344 301.544 90.824 256 90.824v51.38c28.916 5.128 54.804 19.112 74.744 39.056 28.708-28.712 23.804-23.808 42.004-42.008z" fill="#f5ea07"/><g fill="#656d7a"><path d="M248.592 274.82l70.728-82.196-82.196 70.728z"/><circle cx="256" cy="256" r="14.96"/></g><circle cx="256" cy="256" r="7.104" fill="#fdfeff"/><path d="M329.432 390.116H182.568c-7.324 0-13.26-5.936-13.26-13.26v-38.58c0-7.324 5.936-13.26 13.26-13.26h146.864c7.324 0 13.26 5.936 13.26 13.26v38.58c0 7.324-5.936 13.26-13.26 13.26z" fill="#656d7a"/><path d="M186.976 338.648c2.748-2.172 6.192-3.26 10.336-3.26s7.588 1.088 10.336 3.26 4.124 4.912 4.124 8.212-1.54 6.224-4.616 8.768c4.144 2.624 6.216 6.316 6.216 11.072 0 3.692-1.476 6.788-4.432 9.288-2.952 2.504-6.828 3.756-11.628 3.756s-8.672-1.252-11.628-3.756c-2.952-2.5-4.428-5.596-4.428-9.288 0-4.756 2.072-8.444 6.212-11.072-3.076-2.544-4.612-5.464-4.612-8.768s1.372-6.036 4.12-8.212zm4.308 33.008c1.884 1.208 3.896 1.816 6.028 1.816s4.144-.604 6.032-1.816c1.884-1.208 2.828-2.944 2.828-5.2s-.9-3.996-2.704-5.228c-1.804-1.228-3.856-1.844-6.152-1.844s-4.348.616-6.152 1.844c-1.808 1.232-2.708 2.972-2.708 5.228-.004 2.256.94 3.988 2.828 5.2zm.584-19.564c1.54 1.252 3.356 1.876 5.444 1.876 2.092 0 3.908-.624 5.444-1.876 1.54-1.252 2.308-2.788 2.308-4.616 0-1.824-.768-3.352-2.308-4.58-1.536-1.232-3.352-1.848-5.444-1.848s-3.904.616-5.444 1.848c-1.536 1.228-2.304 2.76-2.304 4.58-.004 1.828.764 3.364 2.304 4.616zm34.232-13.444c2.748-2.172 6.192-3.26 10.336-3.26s7.588 1.088 10.336 3.26 4.124 4.912 4.124 8.212-1.54 6.224-4.616 8.768c4.144 2.624 6.216 6.316 6.216 11.072 0 3.692-1.476 6.788-4.432 9.288-2.952 2.504-6.828 3.756-11.628 3.756s-8.672-1.252-11.628-3.756c-2.952-2.5-4.428-5.596-4.428-9.288 0-4.756 2.072-8.444 6.212-11.072-3.076-2.544-4.612-5.464-4.612-8.768s1.376-6.036 4.12-8.212zm4.308 33.008c1.884 1.208 3.896 1.816 6.028 1.816s4.144-.604 6.032-1.816c1.884-1.208 2.828-2.944 2.828-5.2s-.9-3.996-2.704-5.228c-1.804-1.228-3.856-1.844-6.152-1.844s-4.348.616-6.152 1.844c-1.808 1.232-2.708 2.972-2.708 5.228-.004 2.256.94 3.988 2.828 5.2zm.584-19.564c1.54 1.252 3.356 1.876 5.444 1.876 2.092 0 3.908-.624 5.444-1.876 1.54-1.252 2.308-2.788 2.308-4.616 0-1.824-.768-3.352-2.308-4.58-1.536-1.232-3.352-1.848-5.444-1.848s-3.904.616-5.444 1.848c-1.536 1.228-2.304 2.76-2.304 4.58 0 1.828.768 3.364 2.304 4.616zm34.232-13.444c2.748-2.172 6.192-3.26 10.336-3.26s7.588 1.088 10.336 3.26 4.124 4.912 4.124 8.212-1.54 6.224-4.616 8.768c4.144 2.624 6.216 6.316 6.216 11.072 0 3.692-1.476 6.788-4.432 9.288-2.952 2.504-6.828 3.756-11.628 3.756s-8.672-1.252-11.628-3.756c-2.952-2.5-4.428-5.596-4.428-9.288 0-4.756 2.072-8.444 6.212-11.072-3.076-2.544-4.612-5.464-4.612-8.768s1.376-6.036 4.12-8.212zm4.308 33.008c1.884 1.208 3.896 1.816 6.028 1.816s4.144-.604 6.032-1.816c1.884-1.208 2.828-2.944 2.828-5.2s-.9-3.996-2.704-5.228c-1.804-1.228-3.856-1.844-6.152-1.844s-4.348.616-6.152 1.844c-1.808 1.232-2.708 2.972-2.708 5.228s.944 3.988 2.828 5.2zm.584-19.564c1.54 1.252 3.356 1.876 5.444 1.876 2.092 0 3.908-.624 5.444-1.876 1.54-1.252 2.308-2.788 2.308-4.616 0-1.824-.768-3.352-2.308-4.58-1.536-1.232-3.352-1.848-5.444-1.848s-3.904.616-5.444 1.848c-1.536 1.228-2.304 2.76-2.304 4.58 0 1.828.768 3.364 2.304 4.616zm34.236-13.444c2.748-2.172 6.192-3.26 10.336-3.26s7.588 1.088 10.336 3.26 4.124 4.912 4.124 8.212-1.54 6.224-4.616 8.768c4.144 2.624 6.216 6.316 6.216 11.072 0 3.692-1.476 6.788-4.432 9.288-2.952 2.504-6.828 3.756-11.628 3.756s-8.672-1.252-11.628-3.756c-2.952-2.5-4.428-5.596-4.428-9.288 0-4.756 2.072-8.444 6.212-11.072-3.076-2.544-4.612-5.464-4.612-8.768s1.372-6.036 4.12-8.212zm4.308 33.008c1.884 1.208 3.896 1.816 6.028 1.816s4.144-.604 6.032-1.816c1.884-1.208 2.828-2.944 2.828-5.2s-.9-3.996-2.704-5.228c-1.804-1.228-3.856-1.844-6.152-1.844s-4.348.616-6.152 1.844c-1.808 1.232-2.708 2.972-2.708 5.228-.004 2.256.94 3.988 2.828 5.2zm.58-19.564c1.54 1.252 3.356 1.876 5.444 1.876 2.092 0 3.908-.624 5.444-1.876 1.54-1.252 2.308-2.788 2.308-4.616 0-1.824-.768-3.352-2.308-4.58-1.536-1.232-3.352-1.848-5.444-1.848s-3.904.616-5.444 1.848c-1.536 1.228-2.304 2.76-2.304 4.58 0 1.828.768 3.364 2.304 4.616z" fill="#fdfeff"/></svg>