<svg xmlns="http://www.w3.org/2000/svg" viewBox="0 0 512 512"><circle cx="256" cy="256" r="256" fill="#6fb1e1"/><path d="M486.08 428.72l-.04 8.32c-.32 6.12-5.4 11.4-12.12 11.4H38.08c-6.72 0-11.8-5.28-12.12-11.4l-.04-8.32h1.96l29.52-85.04c1.68-4.88 6.28-8.12 11.44-8.12h374.32c5.16 0 9.76 3.24 11.44 8.12l29.52 85.04h1.96z" fill="#e8e7e8"/><path d="M485.384 425.16l-30.788-88.66a12.119 12.119 0 0 0-11.452-8.144H68.852c-5.164 0-9.76 3.268-11.452 8.144l-30.784 88.66c-2.736 7.876 3.112 16.1 11.452 16.1h435.868c8.336 0 14.184-8.224 11.448-16.1z" fill="#fdfeff"/><path d="M439.648 63.56h-367.7c-6.696 0-12.124 5.428-12.124 12.124v240.552c0 6.696 5.428 12.124 12.124 12.124h367.7c6.696 0 12.124-5.428 12.124-12.124V75.68c0-6.692-5.428-12.12-12.124-12.12z" fill="#656d7a"/><path fill="#fdfeff" d="M81.04 84.76h349.52v222.36H81.04z"/><path d="M451.772 392h-394.4l13.996-48.3h366.408zm-142.404 33.624H202.632l4.704-23.932h97.328z" fill="#d2d2d4"/><path d="M270.024 186.116v-20.524l-11.92-1.864a53.684 53.684 0 0 0-6.996-16.896l7.1-9.744-14.512-14.512-9.744 7.1a53.376 53.376 0 0 0-16.896-6.996l-1.864-11.892h-20.524l-1.864 11.892a53.095 53.095 0 0 0-16.896 7.024l-9.744-7.124-14.512 14.512 7.124 9.744a53.24 53.24 0 0 0-7.024 16.896l-11.896 1.864v20.524l11.896 1.864a52.865 52.865 0 0 0 6.996 16.896l-7.1 9.744 14.512 14.512 9.744-7.1c5.132 3.24 10.804 5.648 16.896 6.996l1.864 11.92h20.524l1.864-11.92a53.222 53.222 0 0 0 16.92-6.996l9.716 7.1 14.512-14.512-7.1-9.744a52.828 52.828 0 0 0 6.996-16.896l11.928-1.868zm-65.092 23.888c-18.864 0-34.152-15.288-34.152-34.152s15.288-34.152 34.152-34.152 34.152 15.288 34.152 34.152c.004 18.864-15.288 34.152-34.152 34.152zm144.516 42.444v-14.792l-8.592-1.344a38.705 38.705 0 0 0-5.04-12.176l5.116-7.02-10.456-10.456-7.024 5.116a38.558 38.558 0 0 0-12.176-5.044l-1.344-8.572H295.14l-1.344 8.572a38.283 38.283 0 0 0-12.176 5.06l-7.02-5.136-10.456 10.456 5.136 7.02a38.283 38.283 0 0 0-5.06 12.176l-8.572 1.344v14.792l8.572 1.344a38.183 38.183 0 0 0 5.04 12.176l-5.116 7.02L274.6 283.44l7.02-5.116c3.696 2.336 7.788 4.072 12.176 5.044l1.344 8.592h14.792l1.344-8.592a38.397 38.397 0 0 0 12.196-5.044l7.004 5.116 10.456-10.456-5.116-7.02a38.002 38.002 0 0 0 5.04-12.176l8.592-1.34zm-46.908 17.22c-13.596 0-24.612-11.016-24.612-24.612 0-13.596 11.016-24.612 24.612-24.612s24.612 11.016 24.612 24.612c0 13.592-11.016 24.612-24.612 24.612zm69.188-115.432v-14.792l-8.592-1.344a38.705 38.705 0 0 0-5.04-12.176l5.116-7.02-10.456-10.456-7.024 5.116a38.558 38.558 0 0 0-12.176-5.044l-1.344-8.572H317.42l-1.34 8.572a38.283 38.283 0 0 0-12.176 5.06l-7.02-5.136-10.456 10.456 5.136 7.02a38.283 38.283 0 0 0-5.06 12.176l-8.572 1.344v14.792l8.572 1.344a38.183 38.183 0 0 0 5.04 12.176l-5.116 7.02 10.456 10.456 7.02-5.116c3.696 2.336 7.788 4.072 12.176 5.044l1.344 8.592h14.792l1.344-8.592a38.397 38.397 0 0 0 12.196-5.044l7.004 5.116 10.456-10.456-5.116-7.02a38.002 38.002 0 0 0 5.04-12.176l8.588-1.34zm-46.908 17.216c-13.596 0-24.612-11.016-24.612-24.612s11.016-24.612 24.612-24.612 24.612 11.016 24.612 24.612c0 13.596-11.02 24.612-24.612 24.612z" fill="#f1592f"/></svg>